<svg xmlns="http://www.w3.org/2000/svg" viewBox="0 0 4000 4000">
        <path d="M1610,770 C1611.6666666666665,770 1618.3333333333335,768.3333333333333 1620,770 C1621.6666666666665,771.6666666666667 1623.3333333333335,778.3333333333333 1620,780 C1616.6666666666665,781.6666666666667 1598.3333333333335,780 1600,780 C1601.6666666666665,780 1631.6666666666665,778.3333333333333 1630,780 C1628.3333333333335,781.6666666666667 1596.6666666666665,790 1590,790 C1583.3333333333335,790 1581.6666666666665,781.6666666666667 1590,780 C1598.3333333333335,778.3333333333333 1631.6666666666665,778.3333333333333 1640,780 C1648.3333333333335,781.6666666666667 1650,786.6666666666667 1640,790 C1630,793.3333333333333 1590,800 1580,800 C1570,800 1568.3333333333335,791.6666666666667 1580,790 C1591.6666666666665,788.3333333333333 1651.6666666666665,786.6666666666667 1650,790 C1648.3333333333335,793.3333333333333 1583.3333333333335,808.3333333333333 1570,810 C1556.6666666666665,811.6666666666667 1555,803.3333333333333 1570,800 C1585,796.6666666666667 1661.6666666666665,786.6666666666667 1660,790 C1658.3333333333335,793.3333333333333 1576.6666666666665,816.6666666666667 1560,820 C1543.3333333333335,823.3333333333333 1541.6666666666665,815 1560,810 C1578.3333333333335,805 1651.6666666666665,791.6666666666667 1670,790 C1688.3333333333335,788.3333333333333 1690,793.3333333333333 1670,800 C1650,806.6666666666667 1570,826.6666666666667 1550,830 C1530,833.3333333333333 1528.3333333333335,825 1550,820 C1571.6666666666665,815 1658.3333333333335,801.6666666666667 1680,800 C1701.6666666666665,798.3333333333333 1703.3333333333335,803.3333333333333 1680,810 C1656.6666666666665,816.6666666666667 1563.3333333333335,836.6666666666667 1540,840 C1516.6666666666665,843.3333333333333 1515,835 1540,830 C1565,825 1665,811.6666666666667 1690,810 C1715,808.3333333333333 1716.6666666666665,813.3333333333333 1690,820 C1663.3333333333335,826.6666666666667 1556.6666666666665,846.6666666666667 1530,850 C1503.3333333333335,853.3333333333333 1501.6666666666665,845 1530,840 C1558.3333333333335,835 1671.6666666666665,821.6666666666667 1700,820 C1728.3333333333335,818.3333333333333 1730,823.3333333333333 1700,830 C1670,836.6666666666667 1518.3333333333335,860 1520,860 C1521.6666666666665,860 1678.3333333333335,831.6666666666667 1710,830 C1741.6666666666665,828.3333333333333 1743.3333333333335,843.3333333333333 1710,850 C1676.6666666666665,856.6666666666667 1508.3333333333335,870 1510,870 C1511.6666666666665,870 1685,848.3333333333333 1720,850 C1755,851.6666666666667 1755,875 1720,880 C1685,885 1510,878.3333333333333 1510,880 C1510,881.6666666666667 1721.6666666666665,888.3333333333333 1720,890 C1718.3333333333335,891.6666666666667 1501.6666666666665,888.3333333333333 1500,890 C1498.3333333333335,891.6666666666667 1710,898.3333333333333 1710,900 C1710,901.6666666666667 1501.6666666666665,898.3333333333333 1500,900 C1498.3333333333335,901.6666666666667 1701.6666666666665,908.3333333333333 1700,910 C1698.3333333333335,911.6666666666667 1490,908.3333333333333 1490,910 C1490,911.6666666666667 1700,918.3333333333333 1700,920 C1700,921.6666666666667 1490,918.3333333333333 1490,920 C1490,921.6666666666667 1701.6666666666665,928.3333333333333 1700,930 C1698.3333333333335,931.6666666666667 1481.6666666666665,928.3333333333333 1480,930 C1478.3333333333335,931.6666666666667 1690,938.3333333333333 1690,940 C1690,941.6666666666667 1480,938.3333333333333 1480,940 C1480,941.6666666666667 1691.6666666666665,948.3333333333333 1690,950 C1688.3333333333335,951.6666666666667 1471.6666666666665,948.3333333333333 1470,950 C1468.3333333333335,951.6666666666667 1680,958.3333333333333 1680,960 C1680,961.6666666666667 1488.3333333333335,958.3333333333333 1470,960 C1451.6666666666665,961.6666666666667 1571.6666666666665,968.3333333333333 1570,970 C1568.3333333333335,971.6666666666667 1461.6666666666665,968.3333333333333 1460,970 C1458.3333333333335,971.6666666666667 1560,978.3333333333333 1560,980 C1560,981.6666666666667 1460,978.3333333333333 1460,980 C1460,981.6666666666667 1560,988.3333333333333 1560,990 C1560,991.6666666666667 1461.6666666666665,988.3333333333333 1460,990 C1458.3333333333335,991.6666666666667 1551.6666666666665,998.3333333333333 1550,1000 C1548.3333333333335,1001.6666666666667 1450,998.3333333333333 1450,1000 C1450,1001.6666666666667 1550,1008.3333333333333 1550,1010 C1550,1011.6666666666667 1451.6666666666665,1008.3333333333333 1450,1010 C1448.3333333333335,1011.6666666666667 1540,1018.3333333333333 1540,1020 C1540,1021.6666666666667 1450,1018.3333333333333 1450,1020 C1450,1021.6666666666667 1541.6666666666665,1028.3333333333333 1540,1030 C1538.3333333333335,1031.6666666666667 1440,1028.3333333333333 1440,1030 C1440,1031.6666666666667 1540,1038.3333333333333 1540,1040 C1540,1041.6666666666667 1441.6666666666665,1038.3333333333333 1440,1040 C1438.3333333333335,1041.6666666666667 1530,1048.3333333333333 1530,1050 C1530,1051.6666666666667 1440,1048.3333333333333 1440,1050 C1440,1051.6666666666667 1531.6666666666665,1058.3333333333333 1530,1060 C1528.3333333333335,1061.6666666666667 1430,1058.3333333333333 1430,1060 C1430,1061.6666666666667 1530,1068.3333333333333 1530,1070 C1530,1071.6666666666667 1431.6666666666665,1068.3333333333333 1430,1070 C1428.3333333333335,1071.6666666666667 1520,1078.3333333333333 1520,1080 C1520,1081.6666666666667 1430,1078.3333333333333 1430,1080 C1430,1081.6666666666667 1520,1088.3333333333333 1520,1090 C1520,1091.6666666666667 1430,1088.3333333333333 1430,1090 C1430,1091.6666666666667 1521.6666666666665,1098.3333333333333 1520,1100 C1518.3333333333335,1101.6666666666667 1421.6666666666665,1098.3333333333333 1420,1100 C1418.3333333333335,1101.6666666666667 1510,1108.3333333333333 1510,1110 C1510,1111.6666666666667 1420,1108.3333333333333 1420,1110 C1420,1111.6666666666667 1510,1118.3333333333333 1510,1120 C1510,1121.6666666666667 1420,1118.3333333333333 1420,1120 C1420,1121.6666666666667 1510,1128.3333333333333 1510,1130 C1510,1131.6666666666667 1420,1128.3333333333333 1420,1130 C1420,1131.6666666666667 1510,1138.3333333333333 1510,1140 C1510,1141.6666666666667 1420,1138.3333333333333 1420,1140 C1420,1141.6666666666667 1510,1148.3333333333333 1510,1150 C1510,1151.6666666666667 1420,1148.3333333333333 1420,1150 C1420,1151.6666666666667 1510,1158.3333333333333 1510,1160 C1510,1161.6666666666667 1420,1158.3333333333333 1420,1160 C1420,1161.6666666666667 1510,1168.3333333333333 1510,1170 C1510,1171.6666666666667 1420,1168.3333333333333 1420,1170 C1420,1171.6666666666667 1510,1178.3333333333333 1510,1180 C1510,1181.6666666666667 1420,1178.3333333333333 1420,1180 C1420,1181.6666666666667 1510,1188.3333333333333 1510,1190 C1510,1191.6666666666667 1420,1188.3333333333333 1420,1190 C1420,1191.6666666666667 1510,1198.3333333333333 1510,1200 C1510,1201.6666666666667 1420,1198.3333333333333 1420,1200 C1420,1201.6666666666667 1510,1208.3333333333333 1510,1210 C1510,1211.6666666666667 1418.3333333333335,1208.3333333333333 1420,1210 C1421.6666666666665,1211.6666666666667 1518.3333333333335,1218.3333333333333 1520,1220 C1521.6666666666665,1221.6666666666667 1428.3333333333335,1221.6666666666667 1430,1220 C1431.6666666666665,1218.3333333333333 1513.3333333333335,1210 1530,1210 C1546.6666666666665,1210 1545,1216.6666666666667 1530,1220 C1515,1223.3333333333333 1438.3333333333335,1231.6666666666667 1440,1230 C1441.6666666666665,1228.3333333333333 1538.3333333333335,1208.3333333333333 1540,1210 C1541.6666666666665,1211.6666666666667 1448.3333333333335,1240 1450,1240 C1451.6666666666665,1240 1550,1208.3333333333333 1550,1210 C1550,1211.6666666666667 1448.3333333333335,1251.6666666666667 1450,1250 C1451.6666666666665,1248.3333333333333 1541.6666666666665,1206.6666666666667 1560,1200 C1578.3333333333335,1193.3333333333333 1576.6666666666665,1200 1560,1210 C1543.3333333333335,1220 1478.3333333333335,1251.6666666666667 1460,1260 C1441.6666666666665,1268.3333333333333 1431.6666666666665,1270 1450,1260 C1468.3333333333335,1250 1566.6666666666665,1198.3333333333333 1570,1200 C1573.3333333333335,1201.6666666666667 1488.3333333333335,1258.3333333333333 1470,1270 C1451.6666666666665,1281.6666666666665 1441.6666666666665,1283.3333333333335 1460,1270 C1478.3333333333335,1256.6666666666667 1560,1201.6666666666667 1580,1190 C1600,1178.3333333333333 1595,1185 1580,1200 C1565,1215 1508.3333333333335,1266.6666666666667 1490,1280 C1471.6666666666665,1293.3333333333335 1453.3333333333335,1296.6666666666665 1470,1280 C1486.6666666666665,1263.3333333333333 1570,1178.3333333333333 1590,1180 C1610,1181.6666666666667 1606.6666666666665,1271.6666666666667 1590,1290 C1573.3333333333335,1308.3333333333335 1488.3333333333335,1310 1490,1290 C1491.6666666666665,1270 1581.6666666666665,1171.6666666666667 1600,1170 C1618.3333333333335,1168.3333333333333 1605,1258.3333333333333 1600,1280 C1595,1301.6666666666665 1586.6666666666665,1296.6666666666665 1570,1300 C1553.3333333333335,1303.3333333333335 1493.3333333333335,1323.3333333333335 1500,1300 C1506.6666666666665,1276.6666666666667 1591.6666666666665,1163.3333333333333 1610,1160 C1628.3333333333335,1156.6666666666667 1608.3333333333335,1280 1610,1280 C1611.6666666666665,1280 1618.3333333333335,1161.6666666666667 1620,1160 C1621.6666666666665,1158.3333333333333 1618.3333333333335,1271.6666666666667 1620,1270 C1621.6666666666665,1268.3333333333333 1628.3333333333335,1151.6666666666667 1630,1150 C1631.6666666666665,1148.3333333333333 1628.3333333333335,1261.6666666666667 1630,1260 C1631.6666666666665,1258.3333333333333 1638.3333333333335,1141.6666666666667 1640,1140 C1641.6666666666665,1138.3333333333333 1638.3333333333335,1250 1640,1250 C1641.6666666666665,1250 1648.3333333333335,1141.6666666666667 1650,1140 C1651.6666666666665,1138.3333333333333 1648.3333333333335,1241.6666666666667 1650,1240 C1651.6666666666665,1238.3333333333333 1658.3333333333335,1131.6666666666667 1660,1130 C1661.6666666666665,1128.3333333333333 1658.3333333333335,1231.6666666666667 1660,1230 C1661.6666666666665,1228.3333333333333 1668.3333333333335,1121.6666666666667 1670,1120 C1671.6666666666665,1118.3333333333333 1668.3333333333335,1220 1670,1220 C1671.6666666666665,1220 1678.3333333333335,1121.6666666666667 1680,1120 C1681.6666666666665,1118.3333333333333 1678.3333333333335,1211.6666666666667 1680,1210 C1681.6666666666665,1208.3333333333333 1688.3333333333335,1113.3333333333333 1690,1110 C1691.6666666666665,1106.6666666666667 1688.3333333333335,1188.3333333333333 1690,1190 C1691.6666666666665,1191.6666666666667 1698.3333333333335,1121.6666666666667 1700,1120 C1701.6666666666665,1118.3333333333333 1698.3333333333335,1178.3333333333333 1700,1180 C1701.6666666666665,1181.6666666666667 1708.3333333333335,1131.6666666666667 1710,1130 C1711.6666666666665,1128.3333333333333 1708.3333333333335,1166.6666666666667 1710,1170 C1711.6666666666665,1173.3333333333333 1718.3333333333335,1151.6666666666667 1720,1150 Z" fill="black" stroke="none" />
      </svg>