<svg xmlns="http://www.w3.org/2000/svg" viewBox="0 0 4000 4000">
        <path d="M1600,770 L1590,780 L1620,770 L1620,780 L1580,790 L1630,780 L1570,800 L1640,780 L1560,810 L1650,780 L1650,790 L1550,820 L1660,790 L1540,830 L1670,790 L1670,800 L1530,840 L1680,800 L1680,810 L1520,850 L1690,810 L1690,820 L1520,860 L1700,820 L1700,830 L1510,870 L1710,830 L1710,850 L1510,880 L1720,850 L1720,890 L1500,890 L1710,900 L1500,900 L1710,910 L1490,910 L1700,920 L1490,920 L1700,930 L1480,930 L1690,940 L1480,940 L1690,950 L1470,950 L1680,960 L1470,960 L1670,970 L1460,970 L1560,980 L1460,980 L1560,990 L1450,1000 L1550,1010 L1450,1010 L1540,1020 L1450,1020 L1540,1030 L1440,1030 L1540,1040 L1440,1040 L1530,1050 L1440,1050 L1530,1060 L1430,1060 L1530,1070 L1430,1070 L1520,1080 L1430,1080 L1520,1090 L1430,1090 L1520,1100 L1420,1100 L1520,1110 L1420,1110 L1510,1120 L1420,1120 L1510,1130 L1420,1130 L1510,1140 L1420,1140 L1510,1150 L1420,1150 L1510,1160 L1420,1160 L1510,1170 L1420,1170 L1510,1180 L1420,1180 L1510,1190 L1420,1190 L1510,1200 L1420,1200 L1520,1210 L1420,1210 L1530,1210 L1430,1220 L1540,1210 L1440,1230 L1550,1210 L1440,1240 L1560,1200 L1450,1250 L1570,1190 L1460,1260 L1580,1190 L1470,1270 L1590,1180 L1590,1280 L1470,1280 L1600,1170 L1590,1290 L1480,1290 L1610,1160 L1610,1280 L1570,1300 L1500,1300 L1620,1150 L1620,1270 L1550,1310 L1530,1310 L1630,1150 L1630,1260 L1640,1140 L1640,1250 L1650,1130 L1650,1240 L1660,1130 L1660,1230 L1670,1120 L1670,1220 L1680,1110 L1680,1210 L1690,1110 L1690,1190 L1700,1110 L1700,1180 L1710,1130 L1710,1170 L1720,1160 Z" fill="black" stroke="none" />
      </svg>