<svg xmlns="http://www.w3.org/2000/svg" viewBox="0 0 4000 4000">
        <path d="M0,660 L10,660 L0,670 L20,660 L0,680 L30,660 L0,690 L40,660 L0,700 L50,660 L0,710 L60,660 L0,720 L70,660 L0,730 L80,660 L0,740 L90,660 L0,750 L100,660 L0,760 L110,660 L0,770 L120,660 L0,780 L130,660 L0,790 L140,660 L0,800 L150,660 L0,810 L160,660 L0,820 L170,660 L0,830 L180,660 L0,840 L190,660 L0,850 L200,660 L0,860 L210,660 L0,870 L220,660 L0,880 L230,660 L0,890 L240,660 L0,900 L250,660 L0,910 L260,660 L0,920 L270,660 L0,930 L280,660 L0,940 L290,660 L0,950 L300,660 L0,960 L310,660 L0,970 L320,660 L0,980 L330,660 L0,990 L340,660 L0,1000 L350,660 L0,1010 L360,660 L0,1020 L370,660 L0,1030 L380,660 L0,1040 L390,660 L0,1050 L400,660 L0,1060 L410,660 L0,1070 L420,660 L0,1080 L430,660 L0,1090 L440,660 L0,1100 L450,660 L0,1110 L460,660 L0,1120 L470,660 L0,1130 L480,660 L0,1140 L490,660 L0,1150 L500,660 L0,1160 L510,660 L0,1170 L520,660 L0,1180 L530,660 L0,1190 L540,660 L0,1200 L550,660 L0,1210 L560,660 L0,1220 L570,660 L0,1230 L580,660 L0,1240 L590,660 L0,1250 L600,660 L0,1260 L610,660 L0,1270 L620,660 L0,1280 L630,660 L0,1290 L640,660 L0,1300 L650,660 L0,1310 L660,660 L0,1320 L670,660 L0,1330 L680,660 L0,1340 L690,660 L0,1350 L700,660 L0,1360 L710,660 L0,1370 L720,660 L0,1380 L730,660 L0,1390 L740,660 L0,1400 L750,660 L0,1410 L760,660 L0,1420 L770,660 L0,1430 L780,660 L0,1440 L790,660 L0,1450 L800,660 L0,1460 L810,660 L0,1470 L820,660 L0,1480 L830,660 L0,1490 L840,660 L0,1500 L850,660 L0,1510 L860,660 L0,1520 L870,660 L0,1530 L880,660 L0,1540 L890,660 L0,1550 L900,660 L0,1560 L910,660 L0,1570 L920,660 L0,1580 L930,660 L0,1590 L940,660 L0,1600 L950,660 L0,1610 L960,660 L0,1620 L970,660 L0,1630 L980,660 L0,1640 L990,660 L0,1650 L1000,660 L0,1660 L1010,660 L0,1670 L1020,660 L0,1680 L1030,660 L0,1690 L1040,660 L0,1700 L1050,660 L0,1710 L1060,660 L0,1720 L1070,660 L0,1730 L1080,660 L0,1740 L1090,660 L0,1750 L1100,660 L0,1760 L1110,660 L0,1770 L1120,660 L0,1780 L1130,660 L0,1790 L1140,660 L0,1800 L1150,660 L0,1810 L1160,660 L0,1820 L1170,660 L0,1830 L1180,660 L0,1840 L1190,660 L0,1850 L1200,660 L0,1860 L1210,660 L0,1870 L1220,660 L0,1880 L1230,660 L0,1890 L1240,660 L0,1900 L1250,660 L0,1910 L1260,660 L0,1920 L1270,660 L0,1930 L1280,660 L0,1940 L1290,660 L0,1950 L1300,660 L0,1960 L1310,660 L0,1970 L1320,660 L0,1980 L1330,660 L0,1990 L1340,660 L0,2000 L1350,660 L0,2010 L1360,660 L0,2020 L1370,660 L0,2030 L1380,660 L0,2040 L1390,660 L0,2050 L1400,660 L0,2060 L1410,660 L0,2070 L1420,660 L0,2080 L1430,660 L0,2090 L1440,660 L0,2100 L1450,660 L0,2110 L1460,660 L0,2120 L1470,660 L0,2130 L1480,660 L0,2140 L1490,660 L0,2150 L1500,660 L0,2160 L1510,660 L0,2170 L1520,660 L0,2180 L1530,660 L0,2190 L1540,660 L0,2200 L1550,660 L0,2210 L1560,660 L0,2220 L1570,660 L0,2230 L1580,660 L0,2240 L1590,660 L0,2250 L1600,660 L0,2260 L1610,660 L0,2270 L1620,660 L0,2280 L1630,660 L0,2290 L1640,660 L0,2300 L1650,660 L0,2310 L1660,660 L0,2320 L1670,660 L0,2330 L1680,660 L0,2340 L1690,660 L0,2350 L1700,660 L0,2360 L1710,660 L0,2370 L1720,660 L0,2380 L1730,660 L0,2390 L1740,660 L0,2400 L1750,660 L0,2410 L1760,660 L0,2420 L1770,660 L0,2430 L1780,660 L0,2440 L1790,660 L0,2450 L1800,660 L0,2460 L1810,660 L0,2470 L1820,660 L0,2480 L1830,660 L0,2490 L1840,660 L0,2500 L1850,660 L0,2510 L1860,660 L0,2520 L1870,660 L0,2530 L1880,660 L0,2540 L1890,660 L0,2550 L1900,660 L0,2560 L1910,660 L0,2570 L1920,660 L0,2580 L1930,660 L0,2590 L1940,660 L0,2600 L1950,660 L0,2610 L1960,660 L0,2620 L1970,660 L0,2630 L1980,660 L0,2640 L1990,660 L0,2650 L2000,660 L0,2660 L2010,660 L0,2670 L2020,660 L0,2680 L2030,660 L0,2690 L2040,660 L0,2700 L2050,660 L0,2710 L2060,660 L0,2720 L2070,660 L0,2730 L2080,660 L0,2740 L2090,660 L0,2750 L2100,660 L0,2760 L2110,660 L0,2770 L2120,660 L0,2780 L2130,660 L0,2790 L2140,660 L0,2800 L2150,660 L0,2810 L2160,660 L0,2820 L2170,660 L0,2830 L2180,660 L0,2840 L2190,660 L0,2850 L2200,660 L0,2860 L2210,660 L0,2870 L2220,660 L0,2880 L2230,660 L0,2890 L2240,660 L0,2900 L2250,660 L0,2910 L2260,660 L0,2920 L2270,660 L0,2930 L2280,660 L0,2940 L2290,660 L0,2950 L2300,660 L0,2960 L2310,660 L0,2970 L2320,660 L0,2980 L2330,660 L0,2990 L2340,660 L0,3000 L2350,660 L0,3010 L2360,660 L0,3020 L2370,660 L0,3030 L2380,660 L0,3040 L2390,660 L0,3050 L2400,660 L0,3060 L2410,660 L0,3070 L2420,660 L0,3080 L2430,660 L0,3090 L2440,660 L0,3100 L2450,660 L0,3110 L2460,660 L0,3120 L2470,660 L0,3130 L2480,660 L0,3140 L2490,660 L0,3150 L2500,660 L0,3160 L2510,660 L0,3170 L2520,660 L0,3180 L2530,660 L0,3190 L2540,660 L0,3200 L2550,660 L0,3210 L2560,660 L0,3220 L2570,660 L0,3230 L2580,660 L0,3240 L2590,660 L0,3250 L2600,660 L0,3260 L2610,660 L0,3270 L2620,660 L0,3280 L2630,660 L0,3290 L2640,660 L0,3300 L2650,660 L0,3310 L2660,660 L2660,3320 L0,3320 L2670,660 L2670,3320 L2680,660 L2680,3320 L2690,660 L2690,3320 L2700,660 L2700,3320 L2710,660 L2710,3320 L2720,660 L2720,3320 L2730,660 L2730,3320 L2740,660 L2740,3320 L2750,660 L2750,3320 L2760,660 L2760,3320 L2770,660 L2770,3320 L2780,660 L2780,3320 L2790,660 L2790,3320 L2800,660 L2800,3320 L2810,660 L2810,3320 L2820,660 L2820,3320 L2830,660 L2830,3320 L2840,660 L2840,3320 L2850,660 L2850,3320 L2860,660 L2860,3320 L2870,660 L2870,3320 L2880,660 L2880,3320 L2890,660 L2890,3320 L2900,660 L2900,3320 L2910,660 L2910,3320 L2920,660 L2920,3320 L2930,660 L2930,3320 L2940,660 L2940,3320 L2950,660 L2950,3320 L2960,660 L2960,3320 L2970,660 L2970,3320 L2980,660 L2980,3320 L2990,660 L2990,3320 L3000,660 L3000,3320 L3010,660 L3010,3320 L3020,660 L3020,3320 L3030,660 L3030,3320 L3040,660 L3040,3320 L3050,660 L3050,3320 L3060,660 L3060,3320 L3070,660 L3070,3320 L3080,660 L3080,3320 L3090,660 L3090,3320 L3100,660 L3100,3320 L3110,660 L3110,3320 L3120,660 L3120,3320 L3130,660 L3130,3320 L3140,660 L3140,3320 L3150,660 L3150,3320 L3160,660 L3160,3320 L3170,660 L3170,3320 L3180,660 L3180,3320 L3190,660 L3190,3320 L3200,660 L3200,3320 L3210,660 L3210,3320 L3220,660 L3220,3320 L3230,660 L3230,3320 L3240,660 L3240,3320 L3250,660 L3250,3320 L3260,660 L3260,3320 L3270,660 L3270,3320 L3280,660 L3280,3320 L3290,660 L3290,3320 L3300,660 L3300,3320 L3310,660 L3310,3320 L3320,660 L3320,3320 L3330,660 L3330,3320 L3340,660 L3340,3320 L3350,660 L3350,3320 L3360,660 L3360,3320 L3370,660 L3370,3320 L3380,660 L3380,3320 L3390,660 L3390,3320 L3400,660 L3400,3320 L3410,660 L3410,3320 L3420,660 L3420,3320 L3430,660 L3430,3320 L3440,660 L3440,3320 L3450,660 L3450,3320 L3460,660 L3460,3320 L3470,660 L3470,3320 L3480,660 L3480,3320 L3490,660 L3490,3320 L3500,660 L3500,3320 L3510,660 L3510,3320 L3520,660 L3520,3320 L3530,660 L3530,3320 L3540,660 L3540,3320 L3550,660 L3550,3320 L3560,660 L3560,3320 L3570,660 L3570,3320 L3580,660 L3580,3320 L3590,660 L3590,3320 L3600,660 L3600,3320 L3610,660 L3610,3320 L3620,660 L3620,3320 L3630,660 L3630,3320 L3640,660 L3640,3320 L3650,660 L3650,3320 L3660,660 L3660,3320 L3670,660 L3670,3320 L3680,660 L3680,3320 L3690,660 L3690,3320 L3700,660 L3700,3320 L3710,660 L3710,3320 L3720,660 L3720,3320 L3730,660 L3730,3320 L3740,660 L3740,3320 L3750,660 L3750,3320 L3760,660 L3760,3320 L3770,660 L3770,3320 L3780,660 L3780,3320 L3790,660 L3790,3320 L3800,660 L3800,3320 L3810,660 L3810,3320 L3820,660 L3820,3320 L3830,660 L3830,3320 L3840,660 L3840,3320 L3850,660 L3850,3320 L3860,660 L3860,3320 L3870,660 L3870,3320 L3880,660 L3880,3320 L3890,660 L3890,3320 L3900,660 L3900,3320 L3910,660 L3910,3320 L3920,660 L3920,3320 L3930,660 L3930,3320 L3940,660 L3940,3320 L3950,660 L3950,3320 L3960,660 L3960,3320 L3970,660 L3970,3320 L3980,660 L3980,3320 L3990,660 L3990,3320 Z" fill="black" stroke="none" />
      </svg>