<svg xmlns="http://www.w3.org/2000/svg" viewBox="0 0 4000 4000">
        <path d="M1600,800 C1601.6666666666665,800 1610,798.3333333333333 1610,800 C1610,801.6666666666667 1603.3333333333335,808.3333333333333 1600,810 C1596.6666666666665,811.6666666666667 1586.6666666666665,811.6666666666667 1590,810 C1593.3333333333335,808.3333333333333 1620,798.3333333333333 1620,800 C1620,801.6666666666667 1596.6666666666665,816.6666666666667 1590,820 C1583.3333333333335,823.3333333333333 1573.3333333333335,823.3333333333333 1580,820 C1586.6666666666665,816.6666666666667 1621.6666666666665,801.6666666666667 1630,800 C1638.3333333333335,798.3333333333333 1638.3333333333335,805 1630,810 C1621.6666666666665,815 1590,826.6666666666667 1580,830 C1570,833.3333333333333 1560,833.3333333333333 1570,830 C1580,826.6666666666667 1640,808.3333333333333 1640,810 C1640,811.6666666666667 1583.3333333333335,835 1570,840 C1556.6666666666665,845 1546.6666666666665,845 1560,840 C1573.3333333333335,835 1650,808.3333333333333 1650,810 C1650,811.6666666666667 1576.6666666666665,843.3333333333333 1560,850 C1543.3333333333335,856.6666666666667 1533.3333333333335,856.6666666666667 1550,850 C1566.6666666666665,843.3333333333333 1641.6666666666665,815 1660,810 C1678.3333333333335,805 1678.3333333333335,811.6666666666667 1660,820 C1641.6666666666665,828.3333333333333 1548.3333333333335,860 1550,860 C1551.6666666666665,860 1650,825 1670,820 C1690,815 1690,821.6666666666667 1670,830 C1650,838.3333333333333 1571.6666666666665,863.3333333333333 1550,870 C1528.3333333333335,876.6666666666667 1518.3333333333335,876.6666666666667 1540,870 C1561.6666666666665,863.3333333333333 1656.6666666666665,835 1680,830 C1703.3333333333335,825 1703.3333333333335,831.6666666666667 1680,840 C1656.6666666666665,848.3333333333333 1565,873.3333333333333 1540,880 C1515,886.6666666666667 1505,886.6666666666667 1530,880 C1555,873.3333333333333 1663.3333333333335,838.3333333333333 1690,840 C1716.6666666666665,841.6666666666667 1716.6666666666665,881.6666666666667 1690,890 C1663.3333333333335,898.3333333333333 1528.3333333333335,895 1530,890 C1531.6666666666665,885 1671.6666666666665,863.3333333333333 1700,860 C1728.3333333333335,856.6666666666667 1701.6666666666665,863.3333333333333 1700,870 C1698.3333333333335,876.6666666666667 1720,895 1690,900 C1660,905 1521.6666666666665,898.3333333333333 1520,900 C1518.3333333333335,901.6666666666667 1680,908.3333333333333 1680,910 C1680,911.6666666666667 1520,908.3333333333333 1520,910 C1520,911.6666666666667 1680,918.3333333333333 1680,920 C1680,921.6666666666667 1521.6666666666665,918.3333333333333 1520,920 C1518.3333333333335,921.6666666666667 1671.6666666666665,928.3333333333333 1670,930 C1668.3333333333335,931.6666666666667 1511.6666666666665,928.3333333333333 1510,930 C1508.3333333333335,931.6666666666667 1661.6666666666665,938.3333333333333 1660,940 C1658.3333333333335,941.6666666666667 1518.3333333333335,938.3333333333333 1500,940 C1481.6666666666665,941.6666666666667 1550,948.3333333333333 1550,950 C1550,951.6666666666667 1500,948.3333333333333 1500,950 C1500,951.6666666666667 1551.6666666666665,958.3333333333333 1550,960 C1548.3333333333335,961.6666666666667 1491.6666666666665,958.3333333333333 1490,960 C1488.3333333333335,961.6666666666667 1540,968.3333333333333 1540,970 C1540,971.6666666666667 1490,968.3333333333333 1490,970 C1490,971.6666666666667 1541.6666666666665,978.3333333333333 1540,980 C1538.3333333333335,981.6666666666667 1481.6666666666665,978.3333333333333 1480,980 C1478.3333333333335,981.6666666666667 1530,988.3333333333333 1530,990 C1530,991.6666666666667 1480,988.3333333333333 1480,990 C1480,991.6666666666667 1530,998.3333333333333 1530,1000 C1530,1001.6666666666667 1481.6666666666665,998.3333333333333 1480,1000 C1478.3333333333335,1001.6666666666667 1521.6666666666665,1008.3333333333333 1520,1010 C1518.3333333333335,1011.6666666666667 1470,1008.3333333333333 1470,1010 C1470,1011.6666666666667 1520,1018.3333333333333 1520,1020 C1520,1021.6666666666667 1470,1018.3333333333333 1470,1020 C1470,1021.6666666666667 1520,1028.3333333333333 1520,1030 C1520,1031.6666666666667 1471.6666666666665,1028.3333333333333 1470,1030 C1468.3333333333335,1031.6666666666667 1511.6666666666665,1038.3333333333333 1510,1040 C1508.3333333333335,1041.6666666666667 1460,1038.3333333333333 1460,1040 C1460,1041.6666666666667 1510,1048.3333333333333 1510,1050 C1510,1051.6666666666667 1461.6666666666665,1048.3333333333333 1460,1050 C1458.3333333333335,1051.6666666666667 1500,1058.3333333333333 1500,1060 C1500,1061.6666666666667 1460,1058.3333333333333 1460,1060 C1460,1061.6666666666667 1500,1068.3333333333333 1500,1070 C1500,1071.6666666666667 1460,1068.3333333333333 1460,1070 C1460,1071.6666666666667 1501.6666666666665,1078.3333333333333 1500,1080 C1498.3333333333335,1081.6666666666667 1450,1078.3333333333333 1450,1080 C1450,1081.6666666666667 1500,1088.3333333333333 1500,1090 C1500,1091.6666666666667 1451.6666666666665,1088.3333333333333 1450,1090 C1448.3333333333335,1091.6666666666667 1490,1098.3333333333333 1490,1100 C1490,1101.6666666666667 1450,1098.3333333333333 1450,1100 C1450,1101.6666666666667 1491.6666666666665,1108.3333333333333 1490,1110 C1488.3333333333335,1111.6666666666667 1440,1108.3333333333333 1440,1110 C1440,1111.6666666666667 1490,1118.3333333333333 1490,1120 C1490,1121.6666666666667 1440,1118.3333333333333 1440,1120 C1440,1121.6666666666667 1490,1128.3333333333333 1490,1130 C1490,1131.6666666666667 1440,1128.3333333333333 1440,1130 C1440,1131.6666666666667 1490,1138.3333333333333 1490,1140 C1490,1141.6666666666667 1441.6666666666665,1138.3333333333333 1440,1140 C1438.3333333333335,1141.6666666666667 1480,1148.3333333333333 1480,1150 C1480,1151.6666666666667 1440,1148.3333333333333 1440,1150 C1440,1151.6666666666667 1480,1158.3333333333333 1480,1160 C1480,1161.6666666666667 1440,1158.3333333333333 1440,1160 C1440,1161.6666666666667 1480,1168.3333333333333 1480,1170 C1480,1171.6666666666667 1440,1168.3333333333333 1440,1170 C1440,1171.6666666666667 1480,1178.3333333333333 1480,1180 C1480,1181.6666666666667 1440,1178.3333333333333 1440,1180 C1440,1181.6666666666667 1480,1188.3333333333333 1480,1190 C1480,1191.6666666666667 1440,1188.3333333333333 1440,1190 C1440,1191.6666666666667 1480,1198.3333333333333 1480,1200 C1480,1201.6666666666667 1440,1198.3333333333333 1440,1200 C1440,1201.6666666666667 1478.3333333333335,1208.3333333333333 1480,1210 C1481.6666666666665,1211.6666666666667 1448.3333333333335,1208.3333333333333 1450,1210 C1451.6666666666665,1211.6666666666667 1490,1218.3333333333333 1490,1220 C1490,1221.6666666666667 1448.3333333333335,1218.3333333333333 1450,1220 C1451.6666666666665,1221.6666666666667 1498.3333333333335,1228.3333333333333 1500,1230 C1501.6666666666665,1231.6666666666667 1458.3333333333335,1228.3333333333333 1460,1230 C1461.6666666666665,1231.6666666666667 1508.3333333333335,1238.3333333333333 1510,1240 C1511.6666666666665,1241.6666666666667 1468.3333333333335,1240 1470,1240 C1471.6666666666665,1240 1516.6666666666665,1238.3333333333333 1520,1240 C1523.3333333333335,1241.6666666666667 1496.6666666666665,1248.3333333333333 1490,1250 C1483.3333333333335,1251.6666666666667 1473.3333333333335,1251.6666666666667 1480,1250 C1486.6666666666665,1248.3333333333333 1526.6666666666665,1238.3333333333333 1530,1240 C1533.3333333333335,1241.6666666666667 1506.6666666666665,1256.6666666666667 1500,1260 C1493.3333333333335,1263.3333333333333 1483.3333333333335,1265 1490,1260 C1496.6666666666665,1255 1531.6666666666665,1233.3333333333333 1540,1230 C1548.3333333333335,1226.6666666666667 1543.3333333333335,1233.3333333333333 1540,1240 C1536.6666666666665,1246.6666666666667 1526.6666666666665,1265 1520,1270 C1513.3333333333335,1275 1495,1276.6666666666667 1500,1270 C1505,1263.3333333333333 1541.6666666666665,1228.3333333333333 1550,1230 C1558.3333333333335,1231.6666666666667 1555,1271.6666666666667 1550,1280 C1545,1288.3333333333335 1518.3333333333335,1290 1520,1280 C1521.6666666666665,1270 1553.3333333333335,1220 1560,1220 C1566.6666666666665,1220 1558.3333333333335,1280 1560,1280 C1561.6666666666665,1280 1568.3333333333335,1221.6666666666667 1570,1220 C1571.6666666666665,1218.3333333333333 1568.3333333333335,1271.6666666666667 1570,1270 C1571.6666666666665,1268.3333333333333 1578.3333333333335,1210 1580,1210 C1581.6666666666665,1210 1578.3333333333335,1270 1580,1270 C1581.6666666666665,1270 1588.3333333333335,1211.6666666666667 1590,1210 C1591.6666666666665,1208.3333333333333 1588.3333333333335,1261.6666666666667 1590,1260 C1591.6666666666665,1258.3333333333333 1598.3333333333335,1201.6666666666667 1600,1200 C1601.6666666666665,1198.3333333333333 1598.3333333333335,1251.6666666666667 1600,1250 C1601.6666666666665,1248.3333333333333 1608.3333333333335,1191.6666666666667 1610,1190 C1611.6666666666665,1188.3333333333333 1608.3333333333335,1240 1610,1240 C1611.6666666666665,1240 1618.3333333333335,1191.6666666666667 1620,1190 C1621.6666666666665,1188.3333333333333 1618.3333333333335,1231.6666666666667 1620,1230 C1621.6666666666665,1228.3333333333333 1628.3333333333335,1181.6666666666667 1630,1180 C1631.6666666666665,1178.3333333333333 1628.3333333333335,1221.6666666666667 1630,1220 C1631.6666666666665,1218.3333333333333 1638.3333333333335,1171.6666666666667 1640,1170 C1641.6666666666665,1168.3333333333333 1638.3333333333335,1211.6666666666667 1640,1210 C1641.6666666666665,1208.3333333333333 1648.3333333333335,1161.6666666666667 1650,1160 C1651.6666666666665,1158.3333333333333 1648.3333333333335,1200 1650,1200 C1651.6666666666665,1200 1658.3333333333335,1161.6666666666667 1660,1160 C1661.6666666666665,1158.3333333333333 1658.3333333333335,1191.6666666666667 1660,1190 C1661.6666666666665,1188.3333333333333 1668.3333333333335,1151.6666666666667 1670,1150 C1671.6666666666665,1148.3333333333333 1668.3333333333335,1180 1670,1180 C1671.6666666666665,1180 1678.3333333333335,1151.6666666666667 1680,1150 C1681.6666666666665,1148.3333333333333 1678.3333333333335,1170 1680,1170 C1681.6666666666665,1170 1688.3333333333335,1151.6666666666667 1690,1150 Z" fill="black" stroke="none" />
      </svg>