<svg xmlns="http://www.w3.org/2000/svg" viewBox="0 0 4000 4000">
        <path d="M1580,750 L1590,750 L1580,760 L1570,760 L1600,750 L1560,770 L1560,760 L1610,750 L1550,780 L1550,770 L1620,750 L1540,790 L1540,780 L1630,750 L1540,800 L1530,800 L1640,750 L1530,810 L1520,810 L1650,750 L1650,760 L1520,820 L1510,820 L1660,760 L1510,830 L1670,760 L1510,840 L1500,840 L1680,760 L1680,770 L1500,850 L1690,770 L1690,780 L1500,860 L1490,860 L1700,780 L1490,870 L1480,870 L1710,780 L1710,800 L1480,880 L1720,800 L1720,810 L1480,890 L1470,890 L1730,810 L1730,830 L1470,900 L1740,830 L1740,910 L1460,910 L1750,870 L1750,880 L1730,920 L1460,920 L1730,930 L1450,930 L1720,940 L1450,940 L1720,950 L1440,950 L1720,960 L1440,960 L1710,970 L1440,970 L1690,980 L1430,980 L1680,990 L1430,990 L1580,1000 L1430,1000 L1580,1010 L1420,1010 L1570,1020 L1420,1020 L1570,1030 L1420,1030 L1570,1040 L1410,1040 L1560,1050 L1410,1050 L1560,1060 L1410,1060 L1550,1070 L1410,1070 L1550,1080 L1400,1080 L1550,1090 L1400,1090 L1540,1100 L1400,1100 L1540,1110 L1400,1110 L1540,1120 L1390,1120 L1540,1130 L1390,1130 L1530,1140 L1390,1140 L1530,1150 L1390,1150 L1530,1160 L1390,1160 L1530,1170 L1390,1170 L1540,1180 L1390,1180 L1550,1180 L1390,1190 L1560,1170 L1560,1180 L1400,1200 L1390,1200 L1570,1160 L1570,1170 L1400,1210 L1580,1160 L1400,1220 L1590,1150 L1590,1160 L1410,1230 L1400,1230 L1600,1140 L1600,1150 L1410,1240 L1610,1130 L1610,1140 L1420,1250 L1410,1250 L1620,1120 L1620,1130 L1430,1260 L1420,1260 L1630,1110 L1630,1120 L1440,1270 L1430,1270 L1640,1110 L1640,1280 L1440,1280 L1650,1100 L1650,1280 L1640,1290 L1450,1290 L1660,1090 L1660,1270 L1630,1300 L1460,1300 L1670,1080 L1670,1260 L1610,1310 L1470,1310 L1680,1080 L1680,1240 L1590,1320 L1480,1320 L1690,1080 L1690,1230 L1570,1330 L1500,1330 L1700,1080 L1700,1220 L1710,1090 L1710,1210 L1720,1100 L1720,1200 L1730,1110 L1730,1190 L1740,1120 L1740,1170 Z" fill="black" stroke="none" />
      </svg>