<svg xmlns="http://www.w3.org/2000/svg" viewBox="0 0 4000 4000">
        <path d="M0,660 C1.6666666666666665,660 10,658.3333333333333 10,660 C10,661.6666666666667 -1.6666666666666665,670 0,670 C1.6666666666666665,670 20,658.3333333333333 20,660 C20,661.6666666666667 -1.6666666666666665,680 0,680 C1.6666666666666665,680 30,658.3333333333333 30,660 C30,661.6666666666667 -1.6666666666666665,690 0,690 C1.6666666666666665,690 40,658.3333333333333 40,660 C40,661.6666666666667 -1.6666666666666665,700 0,700 C1.6666666666666665,700 50,658.3333333333333 50,660 C50,661.6666666666667 -1.6666666666666665,710 0,710 C1.6666666666666665,710 60,658.3333333333333 60,660 C60,661.6666666666667 -1.6666666666666665,720 0,720 C1.6666666666666665,720 70,658.3333333333333 70,660 C70,661.6666666666667 -1.6666666666666665,730 0,730 C1.6666666666666665,730 80,658.3333333333333 80,660 C80,661.6666666666667 -1.6666666666666665,740 0,740 C1.6666666666666665,740 90,658.3333333333333 90,660 C90,661.6666666666667 -1.6666666666666665,750 0,750 C1.6666666666666665,750 100,658.3333333333333 100,660 C100,661.6666666666667 -1.6666666666666665,760 0,760 C1.6666666666666665,760 110,658.3333333333333 110,660 C110,661.6666666666667 -1.6666666666666665,770 0,770 C1.6666666666666665,770 120,658.3333333333333 120,660 C120,661.6666666666667 -1.6666666666666665,780 0,780 C1.6666666666666665,780 130,658.3333333333333 130,660 C130,661.6666666666667 -1.6666666666666665,790 0,790 C1.6666666666666665,790 140,658.3333333333333 140,660 C140,661.6666666666667 -1.6666666666666665,800 0,800 C1.6666666666666665,800 150,658.3333333333333 150,660 C150,661.6666666666667 -1.6666666666666665,810 0,810 C1.6666666666666665,810 160,658.3333333333333 160,660 C160,661.6666666666667 -1.6666666666666665,820 0,820 C1.6666666666666665,820 170,658.3333333333333 170,660 C170,661.6666666666667 -1.6666666666666665,830 0,830 C1.6666666666666665,830 180,658.3333333333333 180,660 C180,661.6666666666667 -1.6666666666666665,840 0,840 C1.6666666666666665,840 190,658.3333333333333 190,660 C190,661.6666666666667 -1.6666666666666665,850 0,850 C1.6666666666666665,850 200,658.3333333333333 200,660 C200,661.6666666666667 -1.6666666666666665,860 0,860 C1.6666666666666665,860 210,658.3333333333333 210,660 C210,661.6666666666667 -1.6666666666666665,870 0,870 C1.6666666666666665,870 220,658.3333333333333 220,660 C220,661.6666666666667 -1.6666666666666665,880 0,880 C1.6666666666666665,880 230,658.3333333333333 230,660 C230,661.6666666666667 -1.6666666666666665,890 0,890 C1.6666666666666665,890 240,658.3333333333333 240,660 C240,661.6666666666667 -1.6666666666666665,900 0,900 C1.6666666666666665,900 250,658.3333333333333 250,660 C250,661.6666666666667 -1.6666666666666665,910 0,910 C1.6666666666666665,910 260,658.3333333333333 260,660 C260,661.6666666666667 -1.6666666666666665,920 0,920 C1.6666666666666665,920 270,658.3333333333333 270,660 C270,661.6666666666667 -1.6666666666666665,930 0,930 C1.6666666666666665,930 280,658.3333333333333 280,660 C280,661.6666666666667 -1.6666666666666665,940 0,940 C1.6666666666666665,940 290,658.3333333333333 290,660 C290,661.6666666666667 -1.6666666666666665,950 0,950 C1.6666666666666665,950 300,658.3333333333333 300,660 C300,661.6666666666667 -1.6666666666666665,960 0,960 C1.6666666666666665,960 310,658.3333333333333 310,660 C310,661.6666666666667 -1.6666666666666665,970 0,970 C1.6666666666666665,970 320,658.3333333333333 320,660 C320,661.6666666666667 -1.6666666666666665,980 0,980 C1.6666666666666665,980 330,658.3333333333333 330,660 C330,661.6666666666667 -1.6666666666666665,990 0,990 C1.6666666666666665,990 340,658.3333333333333 340,660 C340,661.6666666666667 -1.6666666666666665,1000 0,1000 C1.6666666666666665,1000 350,658.3333333333333 350,660 C350,661.6666666666667 -1.6666666666666665,1010 0,1010 C1.6666666666666665,1010 360,658.3333333333333 360,660 C360,661.6666666666667 -1.6666666666666665,1020 0,1020 C1.6666666666666665,1020 370,658.3333333333333 370,660 C370,661.6666666666667 -1.6666666666666665,1030 0,1030 C1.6666666666666665,1030 380,658.3333333333333 380,660 C380,661.6666666666667 -1.6666666666666665,1040 0,1040 C1.6666666666666665,1040 390,658.3333333333333 390,660 C390,661.6666666666667 -1.6666666666666665,1050 0,1050 C1.6666666666666665,1050 400,658.3333333333333 400,660 C400,661.6666666666667 -1.6666666666666665,1060 0,1060 C1.6666666666666665,1060 410,658.3333333333333 410,660 C410,661.6666666666667 -1.6666666666666665,1070 0,1070 C1.6666666666666665,1070 420,658.3333333333333 420,660 C420,661.6666666666667 -1.6666666666666665,1080 0,1080 C1.6666666666666665,1080 430,658.3333333333333 430,660 C430,661.6666666666667 -1.6666666666666665,1090 0,1090 C1.6666666666666665,1090 440,658.3333333333333 440,660 C440,661.6666666666667 -1.6666666666666665,1100 0,1100 C1.6666666666666665,1100 450,658.3333333333333 450,660 C450,661.6666666666667 -1.6666666666666665,1110 0,1110 C1.6666666666666665,1110 460,658.3333333333333 460,660 C460,661.6666666666667 -1.6666666666666665,1120 0,1120 C1.6666666666666665,1120 470,658.3333333333333 470,660 C470,661.6666666666667 -1.6666666666666665,1130 0,1130 C1.6666666666666665,1130 480,658.3333333333333 480,660 C480,661.6666666666667 -1.6666666666666665,1140 0,1140 C1.6666666666666665,1140 490,658.3333333333333 490,660 C490,661.6666666666667 -1.6666666666666665,1150 0,1150 C1.6666666666666665,1150 500,658.3333333333333 500,660 C500,661.6666666666667 -1.6666666666666665,1160 0,1160 C1.6666666666666665,1160 510,658.3333333333333 510,660 C510,661.6666666666667 -1.6666666666666665,1170 0,1170 C1.6666666666666665,1170 520,658.3333333333333 520,660 C520,661.6666666666667 -1.6666666666666665,1180 0,1180 C1.6666666666666665,1180 530,658.3333333333333 530,660 C530,661.6666666666667 -1.6666666666666665,1190 0,1190 C1.6666666666666665,1190 540,658.3333333333333 540,660 C540,661.6666666666667 -1.6666666666666665,1200 0,1200 C1.6666666666666665,1200 550,658.3333333333333 550,660 C550,661.6666666666667 -1.6666666666666665,1210 0,1210 C1.6666666666666665,1210 560,658.3333333333333 560,660 C560,661.6666666666667 -1.6666666666666665,1220 0,1220 C1.6666666666666665,1220 570,658.3333333333333 570,660 C570,661.6666666666667 -1.6666666666666665,1230 0,1230 C1.6666666666666665,1230 580,658.3333333333333 580,660 C580,661.6666666666667 -1.6666666666666665,1240 0,1240 C1.6666666666666665,1240 590,658.3333333333333 590,660 C590,661.6666666666667 -1.6666666666666665,1250 0,1250 C1.6666666666666665,1250 600,658.3333333333333 600,660 C600,661.6666666666667 -1.6666666666666665,1260 0,1260 C1.6666666666666665,1260 610,658.3333333333333 610,660 C610,661.6666666666667 -1.6666666666666665,1270 0,1270 C1.6666666666666665,1270 620,658.3333333333333 620,660 C620,661.6666666666667 -1.6666666666666665,1280 0,1280 C1.6666666666666665,1280 630,658.3333333333333 630,660 C630,661.6666666666667 -1.6666666666666665,1290 0,1290 C1.6666666666666665,1290 640,658.3333333333333 640,660 C640,661.6666666666667 -1.6666666666666665,1300 0,1300 C1.6666666666666665,1300 650,658.3333333333333 650,660 C650,661.6666666666667 -1.6666666666666665,1310 0,1310 C1.6666666666666665,1310 660,658.3333333333333 660,660 C660,661.6666666666667 -1.6666666666666665,1320 0,1320 C1.6666666666666665,1320 670,658.3333333333333 670,660 C670,661.6666666666667 -1.6666666666666665,1330 0,1330 C1.6666666666666665,1330 680,658.3333333333333 680,660 C680,661.6666666666667 -1.6666666666666665,1340 0,1340 C1.6666666666666665,1340 690,658.3333333333333 690,660 C690,661.6666666666667 -1.6666666666666665,1350 0,1350 C1.6666666666666665,1350 700,658.3333333333333 700,660 C700,661.6666666666667 -1.6666666666666665,1360 0,1360 C1.6666666666666665,1360 710,658.3333333333333 710,660 C710,661.6666666666667 -1.6666666666666665,1370 0,1370 C1.6666666666666665,1370 720,658.3333333333333 720,660 C720,661.6666666666667 -1.6666666666666665,1380 0,1380 C1.6666666666666665,1380 730,658.3333333333333 730,660 C730,661.6666666666667 -1.6666666666666665,1390 0,1390 C1.6666666666666665,1390 740,658.3333333333333 740,660 C740,661.6666666666667 -1.6666666666666665,1400 0,1400 C1.6666666666666665,1400 750,658.3333333333333 750,660 C750,661.6666666666667 -1.6666666666666665,1410 0,1410 C1.6666666666666665,1410 760,658.3333333333333 760,660 C760,661.6666666666667 -1.6666666666666665,1420 0,1420 C1.6666666666666665,1420 770,658.3333333333333 770,660 C770,661.6666666666667 -1.6666666666666665,1430 0,1430 C1.6666666666666665,1430 780,658.3333333333333 780,660 C780,661.6666666666667 -1.6666666666666665,1440 0,1440 C1.6666666666666665,1440 790,658.3333333333333 790,660 C790,661.6666666666667 -1.6666666666666665,1450 0,1450 C1.6666666666666665,1450 800,658.3333333333333 800,660 C800,661.6666666666667 -1.6666666666666665,1460 0,1460 C1.6666666666666665,1460 810,658.3333333333333 810,660 C810,661.6666666666667 -1.6666666666666665,1470 0,1470 C1.6666666666666665,1470 820,658.3333333333333 820,660 C820,661.6666666666667 -1.6666666666666665,1480 0,1480 C1.6666666666666665,1480 830,658.3333333333333 830,660 C830,661.6666666666667 -1.6666666666666665,1490 0,1490 C1.6666666666666665,1490 840,658.3333333333333 840,660 C840,661.6666666666667 -1.6666666666666665,1500 0,1500 C1.6666666666666665,1500 850,658.3333333333333 850,660 C850,661.6666666666667 -1.6666666666666665,1510 0,1510 C1.6666666666666665,1510 860,658.3333333333333 860,660 C860,661.6666666666667 -1.6666666666666665,1520 0,1520 C1.6666666666666665,1520 870,658.3333333333333 870,660 C870,661.6666666666667 -1.6666666666666665,1530 0,1530 C1.6666666666666665,1530 880,658.3333333333333 880,660 C880,661.6666666666667 -1.6666666666666665,1540 0,1540 C1.6666666666666665,1540 890,658.3333333333333 890,660 C890,661.6666666666667 -1.6666666666666665,1550 0,1550 C1.6666666666666665,1550 900,658.3333333333333 900,660 C900,661.6666666666667 -1.6666666666666665,1560 0,1560 C1.6666666666666665,1560 910,658.3333333333333 910,660 C910,661.6666666666667 -1.6666666666666665,1570 0,1570 C1.6666666666666665,1570 920,658.3333333333333 920,660 C920,661.6666666666667 -1.6666666666666665,1580 0,1580 C1.6666666666666665,1580 930,658.3333333333333 930,660 C930,661.6666666666667 -1.6666666666666665,1590 0,1590 C1.6666666666666665,1590 940,658.3333333333333 940,660 C940,661.6666666666667 -1.6666666666666665,1600 0,1600 C1.6666666666666665,1600 950,658.3333333333333 950,660 C950,661.6666666666667 -1.6666666666666665,1610 0,1610 C1.6666666666666665,1610 960,658.3333333333333 960,660 C960,661.6666666666667 -1.6666666666666665,1620 0,1620 C1.6666666666666665,1620 970,658.3333333333333 970,660 C970,661.6666666666667 -1.6666666666666665,1630 0,1630 C1.6666666666666665,1630 980,658.3333333333333 980,660 C980,661.6666666666667 -1.6666666666666665,1640 0,1640 C1.6666666666666665,1640 990,658.3333333333333 990,660 C990,661.6666666666667 -1.6666666666666665,1650 0,1650 C1.6666666666666665,1650 1000,658.3333333333333 1000,660 C1000,661.6666666666667 -1.6666666666666665,1660 0,1660 C1.6666666666666665,1660 1010,658.3333333333333 1010,660 C1010,661.6666666666667 -1.6666666666666665,1670 0,1670 C1.6666666666666665,1670 1020,658.3333333333333 1020,660 C1020,661.6666666666667 -1.6666666666666665,1680 0,1680 C1.6666666666666665,1680 1030,658.3333333333333 1030,660 C1030,661.6666666666667 -1.6666666666666665,1690 0,1690 C1.6666666666666665,1690 1040,658.3333333333333 1040,660 C1040,661.6666666666667 -1.6666666666666665,1700 0,1700 C1.6666666666666665,1700 1050,658.3333333333333 1050,660 C1050,661.6666666666667 -1.6666666666666665,1710 0,1710 C1.6666666666666665,1710 1060,658.3333333333333 1060,660 C1060,661.6666666666667 -1.6666666666666665,1720 0,1720 C1.6666666666666665,1720 1070,658.3333333333333 1070,660 C1070,661.6666666666667 -1.6666666666666665,1730 0,1730 C1.6666666666666665,1730 1080,658.3333333333333 1080,660 C1080,661.6666666666667 -1.6666666666666665,1740 0,1740 C1.6666666666666665,1740 1090,658.3333333333333 1090,660 C1090,661.6666666666667 -1.6666666666666665,1750 0,1750 C1.6666666666666665,1750 1100,658.3333333333333 1100,660 C1100,661.6666666666667 -1.6666666666666665,1760 0,1760 C1.6666666666666665,1760 1110,658.3333333333333 1110,660 C1110,661.6666666666667 -1.6666666666666665,1770 0,1770 C1.6666666666666665,1770 1120,658.3333333333333 1120,660 C1120,661.6666666666667 -1.6666666666666665,1780 0,1780 C1.6666666666666665,1780 1130,658.3333333333333 1130,660 C1130,661.6666666666667 -1.6666666666666665,1790 0,1790 C1.6666666666666665,1790 1140,658.3333333333333 1140,660 C1140,661.6666666666667 -1.6666666666666665,1800 0,1800 C1.6666666666666665,1800 1150,658.3333333333333 1150,660 C1150,661.6666666666667 -1.6666666666666665,1810 0,1810 C1.6666666666666665,1810 1160,658.3333333333333 1160,660 C1160,661.6666666666667 -1.6666666666666665,1820 0,1820 C1.6666666666666665,1820 1170,658.3333333333333 1170,660 C1170,661.6666666666667 -1.6666666666666665,1830 0,1830 C1.6666666666666665,1830 1180,658.3333333333333 1180,660 C1180,661.6666666666667 -1.6666666666666665,1840 0,1840 C1.6666666666666665,1840 1190,658.3333333333333 1190,660 C1190,661.6666666666667 -1.6666666666666665,1850 0,1850 C1.6666666666666665,1850 1200,658.3333333333333 1200,660 C1200,661.6666666666667 -1.6666666666666665,1860 0,1860 C1.6666666666666665,1860 1210,658.3333333333333 1210,660 C1210,661.6666666666667 -1.6666666666666665,1870 0,1870 C1.6666666666666665,1870 1220,658.3333333333333 1220,660 C1220,661.6666666666667 -1.6666666666666665,1880 0,1880 C1.6666666666666665,1880 1230,658.3333333333333 1230,660 C1230,661.6666666666667 -1.6666666666666665,1890 0,1890 C1.6666666666666665,1890 1240,658.3333333333333 1240,660 C1240,661.6666666666667 -1.6666666666666665,1900 0,1900 C1.6666666666666665,1900 1250,658.3333333333333 1250,660 C1250,661.6666666666667 -1.6666666666666665,1910 0,1910 C1.6666666666666665,1910 1260,658.3333333333333 1260,660 C1260,661.6666666666667 -1.6666666666666665,1920 0,1920 C1.6666666666666665,1920 1270,658.3333333333333 1270,660 C1270,661.6666666666667 -1.6666666666666665,1930 0,1930 C1.6666666666666665,1930 1280,658.3333333333333 1280,660 C1280,661.6666666666667 -1.6666666666666665,1940 0,1940 C1.6666666666666665,1940 1290,658.3333333333333 1290,660 C1290,661.6666666666667 -1.6666666666666665,1950 0,1950 C1.6666666666666665,1950 1300,658.3333333333333 1300,660 C1300,661.6666666666667 -1.6666666666666665,1960 0,1960 C1.6666666666666665,1960 1310,658.3333333333333 1310,660 C1310,661.6666666666667 -1.6666666666666665,1970 0,1970 C1.6666666666666665,1970 1320,658.3333333333333 1320,660 C1320,661.6666666666667 -1.6666666666666665,1980 0,1980 C1.6666666666666665,1980 1330,658.3333333333333 1330,660 C1330,661.6666666666667 -1.6666666666666665,1990 0,1990 C1.6666666666666665,1990 1340,658.3333333333333 1340,660 C1340,661.6666666666667 -1.6666666666666665,2000 0,2000 C1.6666666666666665,2000 1350,658.3333333333333 1350,660 C1350,661.6666666666667 -1.6666666666666665,2010 0,2010 C1.6666666666666665,2010 1360,658.3333333333333 1360,660 C1360,661.6666666666667 -1.6666666666666665,2020 0,2020 C1.6666666666666665,2020 1370,658.3333333333333 1370,660 C1370,661.6666666666667 -1.6666666666666665,2030 0,2030 C1.6666666666666665,2030 1380,658.3333333333333 1380,660 C1380,661.6666666666667 -1.6666666666666665,2040 0,2040 C1.6666666666666665,2040 1390,658.3333333333333 1390,660 C1390,661.6666666666667 -1.6666666666666665,2050 0,2050 C1.6666666666666665,2050 1400,658.3333333333333 1400,660 C1400,661.6666666666667 -1.6666666666666665,2060 0,2060 C1.6666666666666665,2060 1410,658.3333333333333 1410,660 C1410,661.6666666666667 -1.6666666666666665,2070 0,2070 C1.6666666666666665,2070 1420,658.3333333333333 1420,660 C1420,661.6666666666667 -1.6666666666666665,2080 0,2080 C1.6666666666666665,2080 1430,658.3333333333333 1430,660 C1430,661.6666666666667 -1.6666666666666665,2090 0,2090 C1.6666666666666665,2090 1440,658.3333333333333 1440,660 C1440,661.6666666666667 -1.6666666666666665,2100 0,2100 C1.6666666666666665,2100 1450,658.3333333333333 1450,660 C1450,661.6666666666667 -1.6666666666666665,2110 0,2110 C1.6666666666666665,2110 1460,658.3333333333333 1460,660 C1460,661.6666666666667 -1.6666666666666665,2120 0,2120 C1.6666666666666665,2120 1470,658.3333333333333 1470,660 C1470,661.6666666666667 -1.6666666666666665,2130 0,2130 C1.6666666666666665,2130 1480,658.3333333333333 1480,660 C1480,661.6666666666667 -1.6666666666666665,2140 0,2140 C1.6666666666666665,2140 1490,658.3333333333333 1490,660 C1490,661.6666666666667 -1.6666666666666665,2150 0,2150 C1.6666666666666665,2150 1500,658.3333333333333 1500,660 C1500,661.6666666666667 -1.6666666666666665,2160 0,2160 C1.6666666666666665,2160 1510,658.3333333333333 1510,660 C1510,661.6666666666667 -1.6666666666666665,2170 0,2170 C1.6666666666666665,2170 1520,658.3333333333333 1520,660 C1520,661.6666666666667 -1.6666666666666665,2180 0,2180 C1.6666666666666665,2180 1530,658.3333333333333 1530,660 C1530,661.6666666666667 -1.6666666666666665,2190 0,2190 C1.6666666666666665,2190 1540,658.3333333333333 1540,660 C1540,661.6666666666667 -1.6666666666666665,2200 0,2200 C1.6666666666666665,2200 1550,658.3333333333333 1550,660 C1550,661.6666666666667 -1.6666666666666665,2210 0,2210 C1.6666666666666665,2210 1560,658.3333333333333 1560,660 C1560,661.6666666666667 -1.6666666666666665,2220 0,2220 C1.6666666666666665,2220 1570,658.3333333333333 1570,660 C1570,661.6666666666667 -1.6666666666666665,2230 0,2230 C1.6666666666666665,2230 1580,658.3333333333333 1580,660 C1580,661.6666666666667 -1.6666666666666665,2240 0,2240 C1.6666666666666665,2240 1590,658.3333333333333 1590,660 C1590,661.6666666666667 -1.6666666666666665,2250 0,2250 C1.6666666666666665,2250 1600,658.3333333333333 1600,660 C1600,661.6666666666667 -1.6666666666666665,2260 0,2260 C1.6666666666666665,2260 1610,658.3333333333333 1610,660 C1610,661.6666666666667 -1.6666666666666665,2270 0,2270 C1.6666666666666665,2270 1620,658.3333333333333 1620,660 C1620,661.6666666666667 -1.6666666666666665,2280 0,2280 C1.6666666666666665,2280 1630,658.3333333333333 1630,660 C1630,661.6666666666667 -1.6666666666666665,2290 0,2290 C1.6666666666666665,2290 1640,658.3333333333333 1640,660 C1640,661.6666666666667 -1.6666666666666665,2300 0,2300 C1.6666666666666665,2300 1650,658.3333333333333 1650,660 C1650,661.6666666666667 -1.6666666666666665,2310 0,2310 C1.6666666666666665,2310 1660,658.3333333333333 1660,660 C1660,661.6666666666667 -1.6666666666666665,2320 0,2320 C1.6666666666666665,2320 1670,658.3333333333333 1670,660 C1670,661.6666666666667 -1.6666666666666665,2330 0,2330 C1.6666666666666665,2330 1680,658.3333333333333 1680,660 C1680,661.6666666666667 -1.6666666666666665,2340 0,2340 C1.6666666666666665,2340 1690,658.3333333333333 1690,660 C1690,661.6666666666667 -1.6666666666666665,2350 0,2350 C1.6666666666666665,2350 1700,658.3333333333333 1700,660 C1700,661.6666666666667 -1.6666666666666665,2360 0,2360 C1.6666666666666665,2360 1710,658.3333333333333 1710,660 C1710,661.6666666666667 -1.6666666666666665,2370 0,2370 C1.6666666666666665,2370 1720,658.3333333333333 1720,660 C1720,661.6666666666667 -1.6666666666666665,2380 0,2380 C1.6666666666666665,2380 1730,658.3333333333333 1730,660 C1730,661.6666666666667 -1.6666666666666665,2390 0,2390 C1.6666666666666665,2390 1740,658.3333333333333 1740,660 C1740,661.6666666666667 -1.6666666666666665,2400 0,2400 C1.6666666666666665,2400 1750,658.3333333333333 1750,660 C1750,661.6666666666667 -1.6666666666666665,2410 0,2410 C1.6666666666666665,2410 1760,658.3333333333333 1760,660 C1760,661.6666666666667 -1.6666666666666665,2420 0,2420 C1.6666666666666665,2420 1770,658.3333333333333 1770,660 C1770,661.6666666666667 -1.6666666666666665,2430 0,2430 C1.6666666666666665,2430 1780,658.3333333333333 1780,660 C1780,661.6666666666667 -1.6666666666666665,2440 0,2440 C1.6666666666666665,2440 1790,658.3333333333333 1790,660 C1790,661.6666666666667 -1.6666666666666665,2450 0,2450 C1.6666666666666665,2450 1800,658.3333333333333 1800,660 C1800,661.6666666666667 -1.6666666666666665,2460 0,2460 C1.6666666666666665,2460 1810,658.3333333333333 1810,660 C1810,661.6666666666667 -1.6666666666666665,2470 0,2470 C1.6666666666666665,2470 1820,658.3333333333333 1820,660 C1820,661.6666666666667 -1.6666666666666665,2480 0,2480 C1.6666666666666665,2480 1830,658.3333333333333 1830,660 C1830,661.6666666666667 -1.6666666666666665,2490 0,2490 C1.6666666666666665,2490 1840,658.3333333333333 1840,660 C1840,661.6666666666667 -1.6666666666666665,2500 0,2500 C1.6666666666666665,2500 1850,658.3333333333333 1850,660 C1850,661.6666666666667 -1.6666666666666665,2510 0,2510 C1.6666666666666665,2510 1860,658.3333333333333 1860,660 C1860,661.6666666666667 -1.6666666666666665,2520 0,2520 C1.6666666666666665,2520 1870,658.3333333333333 1870,660 C1870,661.6666666666667 -1.6666666666666665,2530 0,2530 C1.6666666666666665,2530 1880,658.3333333333333 1880,660 C1880,661.6666666666667 -1.6666666666666665,2540 0,2540 C1.6666666666666665,2540 1890,658.3333333333333 1890,660 C1890,661.6666666666667 -1.6666666666666665,2550 0,2550 C1.6666666666666665,2550 1900,658.3333333333333 1900,660 C1900,661.6666666666667 -1.6666666666666665,2560 0,2560 C1.6666666666666665,2560 1910,658.3333333333333 1910,660 C1910,661.6666666666667 -1.6666666666666665,2570 0,2570 C1.6666666666666665,2570 1920,658.3333333333333 1920,660 C1920,661.6666666666667 -1.6666666666666665,2580 0,2580 C1.6666666666666665,2580 1930,658.3333333333333 1930,660 C1930,661.6666666666667 -1.6666666666666665,2590 0,2590 C1.6666666666666665,2590 1940,658.3333333333333 1940,660 C1940,661.6666666666667 -1.6666666666666665,2600 0,2600 C1.6666666666666665,2600 1950,658.3333333333333 1950,660 C1950,661.6666666666667 -1.6666666666666665,2610 0,2610 C1.6666666666666665,2610 1960,658.3333333333333 1960,660 C1960,661.6666666666667 -1.6666666666666665,2620 0,2620 C1.6666666666666665,2620 1970,658.3333333333333 1970,660 C1970,661.6666666666667 -1.6666666666666665,2630 0,2630 C1.6666666666666665,2630 1980,658.3333333333333 1980,660 C1980,661.6666666666667 -1.6666666666666665,2640 0,2640 C1.6666666666666665,2640 1990,658.3333333333333 1990,660 C1990,661.6666666666667 -1.6666666666666665,2650 0,2650 C1.6666666666666665,2650 2000,658.3333333333333 2000,660 C2000,661.6666666666667 -1.6666666666666665,2660 0,2660 C1.6666666666666665,2660 2010,658.3333333333333 2010,660 C2010,661.6666666666667 -1.6666666666666665,2670 0,2670 C1.6666666666666665,2670 2020,658.3333333333333 2020,660 C2020,661.6666666666667 -1.6666666666666665,2680 0,2680 C1.6666666666666665,2680 2030,658.3333333333333 2030,660 C2030,661.6666666666667 -1.6666666666666665,2690 0,2690 C1.6666666666666665,2690 2040,658.3333333333333 2040,660 C2040,661.6666666666667 -1.6666666666666665,2700 0,2700 C1.6666666666666665,2700 2050,658.3333333333333 2050,660 C2050,661.6666666666667 -1.6666666666666665,2710 0,2710 C1.6666666666666665,2710 2060,658.3333333333333 2060,660 C2060,661.6666666666667 -1.6666666666666665,2720 0,2720 C1.6666666666666665,2720 2070,658.3333333333333 2070,660 C2070,661.6666666666667 -1.6666666666666665,2730 0,2730 C1.6666666666666665,2730 2080,658.3333333333333 2080,660 C2080,661.6666666666667 -1.6666666666666665,2740 0,2740 C1.6666666666666665,2740 2090,658.3333333333333 2090,660 C2090,661.6666666666667 -1.6666666666666665,2750 0,2750 C1.6666666666666665,2750 2100,658.3333333333333 2100,660 C2100,661.6666666666667 -1.6666666666666665,2760 0,2760 C1.6666666666666665,2760 2110,658.3333333333333 2110,660 C2110,661.6666666666667 -1.6666666666666665,2770 0,2770 C1.6666666666666665,2770 2120,658.3333333333333 2120,660 C2120,661.6666666666667 -1.6666666666666665,2780 0,2780 C1.6666666666666665,2780 2130,658.3333333333333 2130,660 C2130,661.6666666666667 -1.6666666666666665,2790 0,2790 C1.6666666666666665,2790 2140,658.3333333333333 2140,660 C2140,661.6666666666667 -1.6666666666666665,2800 0,2800 C1.6666666666666665,2800 2150,658.3333333333333 2150,660 C2150,661.6666666666667 -1.6666666666666665,2810 0,2810 C1.6666666666666665,2810 2160,658.3333333333333 2160,660 C2160,661.6666666666667 -1.6666666666666665,2820 0,2820 C1.6666666666666665,2820 2170,658.3333333333333 2170,660 C2170,661.6666666666667 -1.6666666666666665,2830 0,2830 C1.6666666666666665,2830 2180,658.3333333333333 2180,660 C2180,661.6666666666667 -1.6666666666666665,2840 0,2840 C1.6666666666666665,2840 2190,658.3333333333333 2190,660 C2190,661.6666666666667 -1.6666666666666665,2850 0,2850 C1.6666666666666665,2850 2200,658.3333333333333 2200,660 C2200,661.6666666666667 -1.6666666666666665,2860 0,2860 C1.6666666666666665,2860 2210,658.3333333333333 2210,660 C2210,661.6666666666667 -1.6666666666666665,2870 0,2870 C1.6666666666666665,2870 1850,988.3333333333335 2220,660 C2590,331.66666666666663 2590,530 2220,900 C1850,1270 -1.6666666666666665,2920 0,2880 C1.6666666666666665,2840 1858.3333333333335,990 2230,660 C2601.666666666667,330 2601.666666666667,528.3333333333334 2230,900 C1858.3333333333335,1271.6666666666665 -1.6666666666666665,2930 0,2890 C1.6666666666666665,2850 1866.6666666666665,991.6666666666665 2240,660 C2613.333333333333,328.33333333333337 2613.333333333333,526.6666666666666 2240,900 C1866.6666666666665,1273.3333333333335 -1.6666666666666665,2940 0,2900 C1.6666666666666665,2860 2250,658.3333333333333 2250,660 C2250,661.6666666666667 -1.6666666666666665,2910 0,2910 C1.6666666666666665,2910 2260,658.3333333333333 2260,660 C2260,661.6666666666667 -1.6666666666666665,2920 0,2920 C1.6666666666666665,2920 2270,658.3333333333333 2270,660 C2270,661.6666666666667 -1.6666666666666665,2930 0,2930 C1.6666666666666665,2930 2280,658.3333333333333 2280,660 C2280,661.6666666666667 -1.6666666666666665,2940 0,2940 C1.6666666666666665,2940 2290,658.3333333333333 2290,660 C2290,661.6666666666667 -1.6666666666666665,2950 0,2950 C1.6666666666666665,2950 2300,658.3333333333333 2300,660 C2300,661.6666666666667 -1.6666666666666665,2960 0,2960 C1.6666666666666665,2960 2310,658.3333333333333 2310,660 C2310,661.6666666666667 -1.6666666666666665,2970 0,2970 C1.6666666666666665,2970 2320,658.3333333333333 2320,660 C2320,661.6666666666667 -1.6666666666666665,2980 0,2980 C1.6666666666666665,2980 2330,658.3333333333333 2330,660 C2330,661.6666666666667 -1.6666666666666665,2990 0,2990 C1.6666666666666665,2990 2340,658.3333333333333 2340,660 C2340,661.6666666666667 -1.6666666666666665,3000 0,3000 C1.6666666666666665,3000 2350,658.3333333333333 2350,660 C2350,661.6666666666667 -1.6666666666666665,3010 0,3010 C1.6666666666666665,3010 2360,658.3333333333333 2360,660 C2360,661.6666666666667 -1.6666666666666665,3020 0,3020 C1.6666666666666665,3020 2370,658.3333333333333 2370,660 C2370,661.6666666666667 -1.6666666666666665,3030 0,3030 C1.6666666666666665,3030 2380,658.3333333333333 2380,660 C2380,661.6666666666667 -1.6666666666666665,3040 0,3040 C1.6666666666666665,3040 2390,658.3333333333333 2390,660 C2390,661.6666666666667 -1.6666666666666665,3050 0,3050 C1.6666666666666665,3050 2400,658.3333333333333 2400,660 C2400,661.6666666666667 -1.6666666666666665,3060 0,3060 C1.6666666666666665,3060 2410,658.3333333333333 2410,660 C2410,661.6666666666667 -1.6666666666666665,3070 0,3070 C1.6666666666666665,3070 2420,658.3333333333333 2420,660 C2420,661.6666666666667 -1.6666666666666665,3080 0,3080 C1.6666666666666665,3080 2430,658.3333333333333 2430,660 C2430,661.6666666666667 -1.6666666666666665,3090 0,3090 C1.6666666666666665,3090 2440,658.3333333333333 2440,660 C2440,661.6666666666667 -1.6666666666666665,3100 0,3100 C1.6666666666666665,3100 2450,658.3333333333333 2450,660 C2450,661.6666666666667 -1.6666666666666665,3110 0,3110 C1.6666666666666665,3110 2460,658.3333333333333 2460,660 C2460,661.6666666666667 -1.6666666666666665,3120 0,3120 C1.6666666666666665,3120 2470,658.3333333333333 2470,660 C2470,661.6666666666667 -1.6666666666666665,3130 0,3130 C1.6666666666666665,3130 2480,658.3333333333333 2480,660 C2480,661.6666666666667 -1.6666666666666665,3140 0,3140 C1.6666666666666665,3140 2490,658.3333333333333 2490,660 C2490,661.6666666666667 -1.6666666666666665,3150 0,3150 C1.6666666666666665,3150 2500,658.3333333333333 2500,660 C2500,661.6666666666667 -1.6666666666666665,3160 0,3160 C1.6666666666666665,3160 2510,658.3333333333333 2510,660 C2510,661.6666666666667 -1.6666666666666665,3170 0,3170 C1.6666666666666665,3170 2520,658.3333333333333 2520,660 C2520,661.6666666666667 -1.6666666666666665,3180 0,3180 C1.6666666666666665,3180 2530,658.3333333333333 2530,660 C2530,661.6666666666667 -1.6666666666666665,3190 0,3190 C1.6666666666666665,3190 2540,658.3333333333333 2540,660 C2540,661.6666666666667 -1.6666666666666665,3200 0,3200 C1.6666666666666665,3200 2550,658.3333333333333 2550,660 C2550,661.6666666666667 -1.6666666666666665,3210 0,3210 C1.6666666666666665,3210 2560,658.3333333333333 2560,660 C2560,661.6666666666667 -1.6666666666666665,3220 0,3220 C1.6666666666666665,3220 2570,658.3333333333333 2570,660 C2570,661.6666666666667 -1.6666666666666665,3230 0,3230 C1.6666666666666665,3230 2580,658.3333333333333 2580,660 C2580,661.6666666666667 -1.6666666666666665,3240 0,3240 C1.6666666666666665,3240 2590,658.3333333333333 2590,660 C2590,661.6666666666667 -1.6666666666666665,3250 0,3250 C1.6666666666666665,3250 2600,658.3333333333333 2600,660 C2600,661.6666666666667 -1.6666666666666665,3260 0,3260 C1.6666666666666665,3260 2610,658.3333333333333 2610,660 C2610,661.6666666666667 -1.6666666666666665,3270 0,3270 C1.6666666666666665,3270 2620,658.3333333333333 2620,660 C2620,661.6666666666667 -1.6666666666666665,3280 0,3280 C1.6666666666666665,3280 2630,658.3333333333333 2630,660 C2630,661.6666666666667 -1.6666666666666665,3290 0,3290 C1.6666666666666665,3290 2640,658.3333333333333 2640,660 C2640,661.6666666666667 -1.6666666666666665,3300 0,3300 C1.6666666666666665,3300 2650,658.3333333333333 2650,660 C2650,661.6666666666667 -1.6666666666666665,3310 0,3310 C1.6666666666666665,3310 2216.6666666666665,658.3333333333333 2660,660 C3103.333333333333,661.6666666666667 3103.333333333333,2876.666666666667 2660,3320 C2216.6666666666665,3763.333333333333 -1.6666666666666665,3763.333333333333 0,3320 C1.6666666666666665,2876.666666666667 2225,660 2670,660 C3115,660 2668.333333333333,3320 2670,3320 C2671.666666666667,3320 2678.333333333333,660 2680,660 C2681.666666666667,660 2678.333333333333,3320 2680,3320 C2681.666666666667,3320 2688.333333333333,660 2690,660 C2691.666666666667,660 2688.333333333333,3320 2690,3320 C2691.666666666667,3320 2698.333333333333,660 2700,660 C2701.666666666667,660 2698.333333333333,3320 2700,3320 C2701.666666666667,3320 2708.333333333333,660 2710,660 C2711.666666666667,660 2708.333333333333,3320 2710,3320 C2711.666666666667,3320 2718.333333333333,660 2720,660 C2721.666666666667,660 2718.333333333333,3320 2720,3320 C2721.666666666667,3320 2728.333333333333,660 2730,660 C2731.666666666667,660 2728.333333333333,3320 2730,3320 C2731.666666666667,3320 2738.333333333333,660 2740,660 C2741.666666666667,660 2738.333333333333,3320 2740,3320 C2741.666666666667,3320 2748.333333333333,660 2750,660 C2751.666666666667,660 2748.333333333333,3320 2750,3320 C2751.666666666667,3320 2758.333333333333,660 2760,660 C2761.666666666667,660 2758.333333333333,3320 2760,3320 C2761.666666666667,3320 2768.333333333333,660 2770,660 C2771.666666666667,660 2768.333333333333,3320 2770,3320 C2771.666666666667,3320 2778.333333333333,660 2780,660 C2781.666666666667,660 2778.333333333333,3320 2780,3320 C2781.666666666667,3320 2788.333333333333,660 2790,660 C2791.666666666667,660 2788.333333333333,3320 2790,3320 C2791.666666666667,3320 2798.333333333333,660 2800,660 C2801.666666666667,660 2798.333333333333,3320 2800,3320 C2801.666666666667,3320 2808.333333333333,660 2810,660 C2811.666666666667,660 2808.333333333333,3320 2810,3320 C2811.666666666667,3320 2818.333333333333,660 2820,660 C2821.666666666667,660 2818.333333333333,3320 2820,3320 C2821.666666666667,3320 2828.333333333333,660 2830,660 C2831.666666666667,660 2828.333333333333,3320 2830,3320 C2831.666666666667,3320 2838.333333333333,660 2840,660 C2841.666666666667,660 2838.333333333333,3320 2840,3320 C2841.666666666667,3320 2848.333333333333,660 2850,660 C2851.666666666667,660 2848.333333333333,3320 2850,3320 C2851.666666666667,3320 2858.333333333333,660 2860,660 C2861.666666666667,660 2858.333333333333,3320 2860,3320 C2861.666666666667,3320 2868.333333333333,660 2870,660 C2871.666666666667,660 2868.333333333333,3320 2870,3320 C2871.666666666667,3320 2878.333333333333,660 2880,660 C2881.666666666667,660 2878.333333333333,3320 2880,3320 C2881.666666666667,3320 2888.333333333333,660 2890,660 C2891.666666666667,660 2888.333333333333,3320 2890,3320 C2891.666666666667,3320 2898.333333333333,660 2900,660 C2901.666666666667,660 2898.333333333333,3320 2900,3320 C2901.666666666667,3320 2908.333333333333,660 2910,660 C2911.666666666667,660 2908.333333333333,3320 2910,3320 C2911.666666666667,3320 2918.333333333333,660 2920,660 C2921.666666666667,660 2918.333333333333,3320 2920,3320 C2921.666666666667,3320 2928.333333333333,660 2930,660 C2931.666666666667,660 2928.333333333333,3320 2930,3320 C2931.666666666667,3320 2938.333333333333,660 2940,660 C2941.666666666667,660 2938.333333333333,3320 2940,3320 C2941.666666666667,3320 2948.333333333333,660 2950,660 C2951.666666666667,660 2948.333333333333,3320 2950,3320 C2951.666666666667,3320 2958.333333333333,660 2960,660 C2961.666666666667,660 2958.333333333333,3320 2960,3320 C2961.666666666667,3320 2968.333333333333,660 2970,660 C2971.666666666667,660 2968.333333333333,3320 2970,3320 C2971.666666666667,3320 2978.333333333333,660 2980,660 C2981.666666666667,660 2978.333333333333,3320 2980,3320 C2981.666666666667,3320 2988.333333333333,660 2990,660 C2991.666666666667,660 2988.333333333333,3320 2990,3320 C2991.666666666667,3320 2998.333333333333,660 3000,660 C3001.666666666667,660 2998.333333333333,3320 3000,3320 C3001.666666666667,3320 3008.333333333333,660 3010,660 C3011.666666666667,660 3008.333333333333,3320 3010,3320 C3011.666666666667,3320 3018.333333333333,660 3020,660 C3021.666666666667,660 3018.333333333333,3320 3020,3320 C3021.666666666667,3320 3028.333333333333,660 3030,660 C3031.666666666667,660 3028.333333333333,3320 3030,3320 C3031.666666666667,3320 3038.333333333333,660 3040,660 C3041.666666666667,660 3038.333333333333,3320 3040,3320 C3041.666666666667,3320 3048.333333333333,660 3050,660 C3051.666666666667,660 3048.333333333333,3320 3050,3320 C3051.666666666667,3320 3058.333333333333,660 3060,660 C3061.666666666667,660 3058.333333333333,3320 3060,3320 C3061.666666666667,3320 3068.333333333333,660 3070,660 C3071.666666666667,660 3068.333333333333,3320 3070,3320 C3071.666666666667,3320 3078.333333333333,660 3080,660 C3081.666666666667,660 3078.333333333333,3320 3080,3320 C3081.666666666667,3320 3088.333333333333,660 3090,660 C3091.666666666667,660 3088.333333333333,3320 3090,3320 C3091.666666666667,3320 3098.333333333333,660 3100,660 C3101.666666666667,660 3098.333333333333,3320 3100,3320 C3101.666666666667,3320 3108.333333333333,660 3110,660 C3111.666666666667,660 3108.333333333333,3320 3110,3320 C3111.666666666667,3320 3118.333333333333,660 3120,660 C3121.666666666667,660 3118.333333333333,3320 3120,3320 C3121.666666666667,3320 3128.333333333333,660 3130,660 C3131.666666666667,660 3128.333333333333,3320 3130,3320 C3131.666666666667,3320 3138.333333333333,660 3140,660 C3141.666666666667,660 3138.333333333333,3320 3140,3320 C3141.666666666667,3320 3148.333333333333,660 3150,660 C3151.666666666667,660 3148.333333333333,3320 3150,3320 C3151.666666666667,3320 3158.333333333333,660 3160,660 C3161.666666666667,660 3158.333333333333,3320 3160,3320 C3161.666666666667,3320 3168.333333333333,660 3170,660 C3171.666666666667,660 3168.333333333333,3320 3170,3320 C3171.666666666667,3320 3178.333333333333,660 3180,660 C3181.666666666667,660 3178.333333333333,3320 3180,3320 C3181.666666666667,3320 3188.333333333333,660 3190,660 C3191.666666666667,660 3188.333333333333,3320 3190,3320 C3191.666666666667,3320 3198.333333333333,660 3200,660 C3201.666666666667,660 3198.333333333333,3320 3200,3320 C3201.666666666667,3320 3208.333333333333,660 3210,660 C3211.666666666667,660 3208.333333333333,3320 3210,3320 C3211.666666666667,3320 3218.333333333333,660 3220,660 C3221.666666666667,660 3218.333333333333,3320 3220,3320 C3221.666666666667,3320 3228.333333333333,660 3230,660 C3231.666666666667,660 3228.333333333333,3320 3230,3320 C3231.666666666667,3320 3238.333333333333,660 3240,660 C3241.666666666667,660 3238.333333333333,3320 3240,3320 C3241.666666666667,3320 3248.333333333333,660 3250,660 C3251.666666666667,660 3248.333333333333,3320 3250,3320 C3251.666666666667,3320 3258.333333333333,660 3260,660 C3261.666666666667,660 3258.333333333333,3320 3260,3320 C3261.666666666667,3320 3268.333333333333,660 3270,660 C3271.666666666667,660 3268.333333333333,3320 3270,3320 C3271.666666666667,3320 3278.333333333333,660 3280,660 C3281.666666666667,660 3278.333333333333,3320 3280,3320 C3281.666666666667,3320 3288.333333333333,660 3290,660 C3291.666666666667,660 3288.333333333333,3320 3290,3320 C3291.666666666667,3320 3298.333333333333,660 3300,660 C3301.666666666667,660 3298.333333333333,3320 3300,3320 C3301.666666666667,3320 3308.333333333333,660 3310,660 C3311.666666666667,660 3308.333333333333,3320 3310,3320 C3311.666666666667,3320 3318.333333333333,660 3320,660 C3321.666666666667,660 3318.333333333333,3320 3320,3320 C3321.666666666667,3320 3328.333333333333,660 3330,660 C3331.666666666667,660 3328.333333333333,3320 3330,3320 C3331.666666666667,3320 3338.333333333333,660 3340,660 C3341.666666666667,660 3338.333333333333,3320 3340,3320 C3341.666666666667,3320 3348.333333333333,660 3350,660 C3351.666666666667,660 3348.333333333333,3320 3350,3320 C3351.666666666667,3320 3358.333333333333,660 3360,660 C3361.666666666667,660 3358.333333333333,3320 3360,3320 C3361.666666666667,3320 3368.333333333333,660 3370,660 C3371.666666666667,660 3368.333333333333,3320 3370,3320 C3371.666666666667,3320 3378.333333333333,660 3380,660 C3381.666666666667,660 3378.333333333333,3320 3380,3320 C3381.666666666667,3320 3388.333333333333,660 3390,660 C3391.666666666667,660 3388.333333333333,3320 3390,3320 C3391.666666666667,3320 3398.333333333333,660 3400,660 C3401.666666666667,660 3398.333333333333,3320 3400,3320 C3401.666666666667,3320 3408.333333333333,660 3410,660 C3411.666666666667,660 3408.333333333333,3320 3410,3320 C3411.666666666667,3320 3418.333333333333,660 3420,660 C3421.666666666667,660 3418.333333333333,3320 3420,3320 C3421.666666666667,3320 3428.333333333333,660 3430,660 C3431.666666666667,660 3428.333333333333,3320 3430,3320 C3431.666666666667,3320 3438.333333333333,660 3440,660 C3441.666666666667,660 3438.333333333333,3320 3440,3320 C3441.666666666667,3320 3448.333333333333,660 3450,660 C3451.666666666667,660 3448.333333333333,3320 3450,3320 C3451.666666666667,3320 3458.333333333333,660 3460,660 C3461.666666666667,660 3458.333333333333,3320 3460,3320 C3461.666666666667,3320 3468.333333333333,660 3470,660 C3471.666666666667,660 3468.333333333333,3320 3470,3320 C3471.666666666667,3320 3478.333333333333,660 3480,660 C3481.666666666667,660 3478.333333333333,3320 3480,3320 C3481.666666666667,3320 3488.333333333333,660 3490,660 C3491.666666666667,660 3488.333333333333,3320 3490,3320 C3491.666666666667,3320 3498.333333333333,660 3500,660 C3501.666666666667,660 3498.333333333333,3320 3500,3320 C3501.666666666667,3320 3508.333333333333,660 3510,660 C3511.666666666667,660 3508.333333333333,3320 3510,3320 C3511.666666666667,3320 3518.333333333333,660 3520,660 C3521.666666666667,660 3518.333333333333,3320 3520,3320 C3521.666666666667,3320 3528.333333333333,660 3530,660 C3531.666666666667,660 3528.333333333333,3320 3530,3320 C3531.666666666667,3320 3538.333333333333,660 3540,660 C3541.666666666667,660 3538.333333333333,3320 3540,3320 C3541.666666666667,3320 3548.333333333333,660 3550,660 C3551.666666666667,660 3548.333333333333,3320 3550,3320 C3551.666666666667,3320 3558.333333333333,660 3560,660 C3561.666666666667,660 3558.333333333333,3320 3560,3320 C3561.666666666667,3320 3568.333333333333,660 3570,660 C3571.666666666667,660 3568.333333333333,3320 3570,3320 C3571.666666666667,3320 3578.333333333333,660 3580,660 C3581.666666666667,660 3578.333333333333,3320 3580,3320 C3581.666666666667,3320 3588.333333333333,660 3590,660 C3591.666666666667,660 3588.333333333333,3320 3590,3320 C3591.666666666667,3320 3598.333333333333,660 3600,660 C3601.666666666667,660 3598.333333333333,3320 3600,3320 C3601.666666666667,3320 3608.333333333333,660 3610,660 C3611.666666666667,660 3608.333333333333,3320 3610,3320 C3611.666666666667,3320 3618.333333333333,660 3620,660 C3621.666666666667,660 3618.333333333333,3320 3620,3320 C3621.666666666667,3320 3628.333333333333,660 3630,660 C3631.666666666667,660 3628.333333333333,3320 3630,3320 C3631.666666666667,3320 3638.333333333333,660 3640,660 C3641.666666666667,660 3638.333333333333,3320 3640,3320 C3641.666666666667,3320 3648.333333333333,660 3650,660 C3651.666666666667,660 3648.333333333333,3320 3650,3320 C3651.666666666667,3320 3658.333333333333,660 3660,660 C3661.666666666667,660 3658.333333333333,3320 3660,3320 C3661.666666666667,3320 3668.333333333333,660 3670,660 C3671.666666666667,660 3668.333333333333,3320 3670,3320 C3671.666666666667,3320 3678.333333333333,660 3680,660 C3681.666666666667,660 3678.333333333333,3320 3680,3320 C3681.666666666667,3320 3688.333333333333,660 3690,660 C3691.666666666667,660 3688.333333333333,3320 3690,3320 C3691.666666666667,3320 3698.333333333333,660 3700,660 C3701.666666666667,660 3698.333333333333,3320 3700,3320 C3701.666666666667,3320 3708.333333333333,660 3710,660 C3711.666666666667,660 3708.333333333333,3320 3710,3320 C3711.666666666667,3320 3718.333333333333,660 3720,660 C3721.666666666667,660 3718.333333333333,3320 3720,3320 C3721.666666666667,3320 3728.333333333333,660 3730,660 C3731.666666666667,660 3728.333333333333,3320 3730,3320 C3731.666666666667,3320 3738.333333333333,660 3740,660 C3741.666666666667,660 3738.333333333333,3320 3740,3320 C3741.666666666667,3320 3748.333333333333,660 3750,660 C3751.666666666667,660 3748.333333333333,3320 3750,3320 C3751.666666666667,3320 3758.333333333333,660 3760,660 C3761.666666666667,660 3758.333333333333,3320 3760,3320 C3761.666666666667,3320 3768.333333333333,660 3770,660 C3771.666666666667,660 3768.333333333333,3320 3770,3320 C3771.666666666667,3320 3778.333333333333,660 3780,660 C3781.666666666667,660 3778.333333333333,3320 3780,3320 C3781.666666666667,3320 3788.333333333333,660 3790,660 C3791.666666666667,660 3788.333333333333,3320 3790,3320 C3791.666666666667,3320 3798.333333333333,660 3800,660 C3801.666666666667,660 3798.333333333333,3320 3800,3320 C3801.666666666667,3320 3808.333333333333,660 3810,660 C3811.666666666667,660 3808.333333333333,3320 3810,3320 C3811.666666666667,3320 3818.333333333333,660 3820,660 C3821.666666666667,660 3818.333333333333,3320 3820,3320 C3821.666666666667,3320 3828.333333333333,660 3830,660 C3831.666666666667,660 3828.333333333333,3320 3830,3320 C3831.666666666667,3320 3838.333333333333,660 3840,660 C3841.666666666667,660 3838.333333333333,3320 3840,3320 C3841.666666666667,3320 3848.333333333333,660 3850,660 C3851.666666666667,660 3848.333333333333,3320 3850,3320 C3851.666666666667,3320 3858.333333333333,660 3860,660 C3861.666666666667,660 3858.333333333333,3320 3860,3320 C3861.666666666667,3320 3868.333333333333,660 3870,660 C3871.666666666667,660 3868.333333333333,3320 3870,3320 C3871.666666666667,3320 3878.333333333333,660 3880,660 C3881.666666666667,660 3878.333333333333,3320 3880,3320 C3881.666666666667,3320 3888.333333333333,660 3890,660 C3891.666666666667,660 3888.333333333333,3320 3890,3320 C3891.666666666667,3320 3898.333333333333,660 3900,660 C3901.666666666667,660 3898.333333333333,3320 3900,3320 C3901.666666666667,3320 3908.333333333333,660 3910,660 C3911.666666666667,660 3908.333333333333,3320 3910,3320 C3911.666666666667,3320 3918.333333333333,660 3920,660 C3921.666666666667,660 3918.333333333333,3320 3920,3320 C3921.666666666667,3320 3928.333333333333,660 3930,660 C3931.666666666667,660 3928.333333333333,3320 3930,3320 C3931.666666666667,3320 3938.333333333333,660 3940,660 C3941.666666666667,660 3938.333333333333,3320 3940,3320 C3941.666666666667,3320 3948.333333333333,660 3950,660 C3951.666666666667,660 3948.333333333333,3320 3950,3320 C3951.666666666667,3320 3958.333333333333,660 3960,660 C3961.666666666667,660 3958.333333333333,3320 3960,3320 C3961.666666666667,3320 3968.333333333333,660 3970,660 C3971.666666666667,660 3968.333333333333,3320 3970,3320 C3971.666666666667,3320 3978.333333333333,660 3980,660 C3981.666666666667,660 3978.333333333333,3320 3980,3320 C3981.666666666667,3320 3988.333333333333,660 3990,660 Z" fill="black" stroke="none" />
      </svg>