<svg xmlns="http://www.w3.org/2000/svg" viewBox="0 0 4000 4000">
        <path d="M1580,750 C1581.6666666666665,750 1590,748.3333333333333 1590,750 C1590,751.6666666666667 1583.3333333333335,758.3333333333333 1580,760 C1576.6666666666665,761.6666666666667 1566.6666666666665,761.6666666666667 1570,760 C1573.3333333333335,758.3333333333333 1601.6666666666665,748.3333333333333 1600,750 C1598.3333333333335,751.6666666666667 1566.6666666666665,768.3333333333333 1560,770 C1553.3333333333335,771.6666666666667 1551.6666666666665,763.3333333333333 1560,760 C1568.3333333333335,756.6666666666667 1611.6666666666665,746.6666666666667 1610,750 C1608.3333333333335,753.3333333333333 1560,776.6666666666667 1550,780 C1540,783.3333333333333 1538.3333333333335,775 1550,770 C1561.6666666666665,765 1621.6666666666665,746.6666666666667 1620,750 C1618.3333333333335,753.3333333333333 1553.3333333333335,785 1540,790 C1526.6666666666665,795 1525,786.6666666666667 1540,780 C1555,773.3333333333333 1630,746.6666666666667 1630,750 C1630,753.3333333333333 1556.6666666666665,791.6666666666667 1540,800 C1523.3333333333335,808.3333333333333 1513.3333333333335,808.3333333333333 1530,800 C1546.6666666666665,791.6666666666667 1640,748.3333333333333 1640,750 C1640,751.6666666666667 1550,800 1530,810 C1510,820 1500,820 1520,810 C1540,800 1628.3333333333335,758.3333333333333 1650,750 C1671.6666666666665,741.6666666666667 1671.6666666666665,748.3333333333333 1650,760 C1628.3333333333335,771.6666666666667 1543.3333333333335,810 1520,820 C1496.6666666666665,830 1486.6666666666665,830 1510,820 C1533.3333333333335,810 1660,758.3333333333333 1660,760 C1660,761.6666666666667 1508.3333333333335,830 1510,830 C1511.6666666666665,830 1670,758.3333333333333 1670,760 C1670,761.6666666666667 1538.3333333333335,826.6666666666667 1510,840 C1481.6666666666665,853.3333333333333 1471.6666666666665,853.3333333333333 1500,840 C1528.3333333333335,826.6666666666667 1650,771.6666666666667 1680,760 C1710,748.3333333333333 1710,755 1680,770 C1650,785 1498.3333333333335,850 1500,850 C1501.6666666666665,850 1658.3333333333335,781.6666666666667 1690,770 C1721.6666666666665,758.3333333333333 1721.6666666666665,765 1690,780 C1658.3333333333335,795 1533.3333333333335,846.6666666666667 1500,860 C1466.6666666666665,873.3333333333333 1456.6666666666665,873.3333333333333 1490,860 C1523.3333333333335,846.6666666666667 1700,778.3333333333333 1700,780 C1700,781.6666666666667 1526.6666666666665,855 1490,870 C1453.3333333333335,885 1443.3333333333335,885 1480,870 C1516.6666666666665,855 1671.6666666666665,791.6666666666667 1710,780 C1748.3333333333335,768.3333333333333 1748.3333333333335,783.3333333333333 1710,800 C1671.6666666666665,816.6666666666667 1478.3333333333335,880 1480,880 C1481.6666666666665,880 1680,811.6666666666667 1720,800 C1760,788.3333333333333 1760,795 1720,810 C1680,825 1521.6666666666665,876.6666666666667 1480,890 C1438.3333333333335,903.3333333333333 1428.3333333333335,903.3333333333333 1470,890 C1511.6666666666665,876.6666666666667 1686.6666666666665,820 1730,810 C1773.3333333333335,800 1773.3333333333335,815 1730,830 C1686.6666666666665,845 1468.3333333333335,900 1470,900 C1471.6666666666665,900 1695,828.3333333333333 1740,830 C1785,831.6666666666667 1786.6666666666665,896.6666666666667 1740,910 C1693.3333333333335,923.3333333333333 1458.3333333333335,916.6666666666667 1460,910 C1461.6666666666665,903.3333333333333 1701.6666666666665,875 1750,870 C1798.3333333333335,865 1753.3333333333335,871.6666666666667 1750,880 C1746.6666666666665,888.3333333333333 1778.3333333333335,913.3333333333333 1730,920 C1681.6666666666665,926.6666666666667 1460,918.3333333333333 1460,920 C1460,921.6666666666667 1731.6666666666665,928.3333333333333 1730,930 C1728.3333333333335,931.6666666666667 1451.6666666666665,928.3333333333333 1450,930 C1448.3333333333335,931.6666666666667 1720,938.3333333333333 1720,940 C1720,941.6666666666667 1450,938.3333333333333 1450,940 C1450,941.6666666666667 1721.6666666666665,948.3333333333333 1720,950 C1718.3333333333335,951.6666666666667 1440,948.3333333333333 1440,950 C1440,951.6666666666667 1720,958.3333333333333 1720,960 C1720,961.6666666666667 1441.6666666666665,958.3333333333333 1440,960 C1438.3333333333335,961.6666666666667 1710,968.3333333333333 1710,970 C1710,971.6666666666667 1443.3333333333335,968.3333333333333 1440,970 C1436.6666666666665,971.6666666666667 1691.6666666666665,978.3333333333333 1690,980 C1688.3333333333335,981.6666666666667 1431.6666666666665,978.3333333333333 1430,980 C1428.3333333333335,981.6666666666667 1680,988.3333333333333 1680,990 C1680,991.6666666666667 1446.6666666666665,988.3333333333333 1430,990 C1413.3333333333335,991.6666666666667 1580,998.3333333333333 1580,1000 C1580,1001.6666666666667 1430,998.3333333333333 1430,1000 C1430,1001.6666666666667 1581.6666666666665,1008.3333333333333 1580,1010 C1578.3333333333335,1011.6666666666667 1421.6666666666665,1008.3333333333333 1420,1010 C1418.3333333333335,1011.6666666666667 1570,1018.3333333333333 1570,1020 C1570,1021.6666666666667 1420,1018.3333333333333 1420,1020 C1420,1021.6666666666667 1570,1028.3333333333333 1570,1030 C1570,1031.6666666666667 1420,1028.3333333333333 1420,1030 C1420,1031.6666666666667 1571.6666666666665,1038.3333333333333 1570,1040 C1568.3333333333335,1041.6666666666667 1411.6666666666665,1038.3333333333333 1410,1040 C1408.3333333333335,1041.6666666666667 1560,1048.3333333333333 1560,1050 C1560,1051.6666666666667 1410,1048.3333333333333 1410,1050 C1410,1051.6666666666667 1560,1058.3333333333333 1560,1060 C1560,1061.6666666666667 1411.6666666666665,1058.3333333333333 1410,1060 C1408.3333333333335,1061.6666666666667 1550,1068.3333333333333 1550,1070 C1550,1071.6666666666667 1410,1068.3333333333333 1410,1070 C1410,1071.6666666666667 1551.6666666666665,1078.3333333333333 1550,1080 C1548.3333333333335,1081.6666666666667 1400,1078.3333333333333 1400,1080 C1400,1081.6666666666667 1550,1088.3333333333333 1550,1090 C1550,1091.6666666666667 1401.6666666666665,1088.3333333333333 1400,1090 C1398.3333333333335,1091.6666666666667 1540,1098.3333333333333 1540,1100 C1540,1101.6666666666667 1400,1098.3333333333333 1400,1100 C1400,1101.6666666666667 1540,1108.3333333333333 1540,1110 C1540,1111.6666666666667 1400,1108.3333333333333 1400,1110 C1400,1111.6666666666667 1541.6666666666665,1118.3333333333333 1540,1120 C1538.3333333333335,1121.6666666666667 1390,1118.3333333333333 1390,1120 C1390,1121.6666666666667 1540,1128.3333333333333 1540,1130 C1540,1131.6666666666667 1391.6666666666665,1128.3333333333333 1390,1130 C1388.3333333333335,1131.6666666666667 1530,1138.3333333333333 1530,1140 C1530,1141.6666666666667 1390,1138.3333333333333 1390,1140 C1390,1141.6666666666667 1530,1148.3333333333333 1530,1150 C1530,1151.6666666666667 1390,1148.3333333333333 1390,1150 C1390,1151.6666666666667 1530,1158.3333333333333 1530,1160 C1530,1161.6666666666667 1390,1158.3333333333333 1390,1160 C1390,1161.6666666666667 1530,1168.3333333333333 1530,1170 C1530,1171.6666666666667 1388.3333333333335,1168.3333333333333 1390,1170 C1391.6666666666665,1171.6666666666667 1540,1178.3333333333333 1540,1180 C1540,1181.6666666666667 1388.3333333333335,1180 1390,1180 C1391.6666666666665,1180 1550,1178.3333333333333 1550,1180 C1550,1181.6666666666667 1388.3333333333335,1191.6666666666667 1390,1190 C1391.6666666666665,1188.3333333333333 1531.6666666666665,1171.6666666666667 1560,1170 C1588.3333333333335,1168.3333333333333 1586.6666666666665,1175 1560,1180 C1533.3333333333335,1185 1428.3333333333335,1196.6666666666667 1400,1200 C1371.6666666666665,1203.3333333333333 1361.6666666666665,1206.6666666666667 1390,1200 C1418.3333333333335,1193.3333333333333 1540,1165 1570,1160 C1600,1155 1598.3333333333335,1161.6666666666667 1570,1170 C1541.6666666666665,1178.3333333333333 1398.3333333333335,1211.6666666666667 1400,1210 C1401.6666666666665,1208.3333333333333 1580,1158.3333333333333 1580,1160 C1580,1161.6666666666667 1398.3333333333335,1221.6666666666667 1400,1220 C1401.6666666666665,1218.3333333333333 1558.3333333333335,1160 1590,1150 C1621.6666666666665,1140 1620,1146.6666666666667 1590,1160 C1560,1173.3333333333333 1441.6666666666665,1218.3333333333333 1410,1230 C1378.3333333333335,1241.6666666666667 1368.3333333333335,1245 1400,1230 C1431.6666666666665,1215 1566.6666666666665,1153.3333333333333 1600,1140 C1633.3333333333335,1126.6666666666667 1631.6666666666665,1133.3333333333333 1600,1150 C1568.3333333333335,1166.6666666666667 1408.3333333333335,1243.3333333333333 1410,1240 C1411.6666666666665,1236.6666666666667 1576.6666666666665,1146.6666666666667 1610,1130 C1643.3333333333335,1113.3333333333333 1641.6666666666665,1120 1610,1140 C1578.3333333333335,1160 1453.3333333333335,1231.6666666666667 1420,1250 C1386.6666666666665,1268.3333333333333 1376.6666666666665,1271.6666666666667 1410,1250 C1443.3333333333335,1228.3333333333333 1585,1140 1620,1120 C1655,1100 1651.6666666666665,1106.6666666666667 1620,1130 C1588.3333333333335,1153.3333333333333 1463.3333333333335,1238.3333333333333 1430,1260 C1396.6666666666665,1281.6666666666665 1386.6666666666665,1285 1420,1260 C1453.3333333333335,1235 1595,1133.3333333333333 1630,1110 C1665,1086.6666666666667 1661.6666666666665,1093.3333333333333 1630,1120 C1598.3333333333335,1146.6666666666667 1473.3333333333335,1245 1440,1270 C1406.6666666666665,1295 1396.6666666666665,1296.6666666666665 1430,1270 C1463.3333333333335,1243.3333333333333 1605,1108.3333333333333 1640,1110 C1675,1111.6666666666667 1673.3333333333335,1251.6666666666667 1640,1280 C1606.6666666666665,1308.3333333333335 1438.3333333333335,1310 1440,1280 C1441.6666666666665,1250 1615,1100 1650,1100 C1685,1100 1651.6666666666665,1248.3333333333333 1650,1280 C1648.3333333333335,1311.6666666666665 1673.3333333333335,1288.3333333333335 1640,1290 C1606.6666666666665,1291.6666666666665 1446.6666666666665,1323.3333333333335 1450,1290 C1453.3333333333335,1256.6666666666667 1625,1093.3333333333333 1660,1090 C1695,1086.6666666666667 1665,1235 1660,1270 C1655,1305 1663.3333333333335,1295 1630,1300 C1596.6666666666665,1305 1453.3333333333335,1336.6666666666665 1460,1300 C1466.6666666666665,1263.3333333333333 1635,1086.6666666666667 1670,1080 C1705,1073.3333333333333 1680,1221.6666666666667 1670,1260 C1660,1298.3333333333335 1643.3333333333335,1301.6666666666665 1610,1310 C1576.6666666666665,1318.3333333333335 1458.3333333333335,1348.3333333333335 1470,1310 C1481.6666666666665,1271.6666666666667 1645,1091.6666666666667 1680,1080 C1715,1068.3333333333333 1695,1200 1680,1240 C1665,1280 1623.3333333333335,1306.6666666666665 1590,1320 C1556.6666666666665,1333.3333333333335 1463.3333333333335,1360 1480,1320 C1496.6666666666665,1280 1655,1095 1690,1080 C1725,1065 1710,1188.3333333333333 1690,1230 C1670,1271.6666666666667 1601.6666666666665,1313.3333333333335 1570,1330 C1538.3333333333335,1346.6666666666665 1478.3333333333335,1371.6666666666665 1500,1330 C1521.6666666666665,1288.3333333333335 1666.6666666666665,1098.3333333333333 1700,1080 C1733.3333333333335,1061.6666666666667 1698.3333333333335,1218.3333333333333 1700,1220 C1701.6666666666665,1221.6666666666667 1708.3333333333335,1091.6666666666667 1710,1090 C1711.6666666666665,1088.3333333333333 1708.3333333333335,1208.3333333333333 1710,1210 C1711.6666666666665,1211.6666666666667 1718.3333333333335,1101.6666666666667 1720,1100 C1721.6666666666665,1098.3333333333333 1718.3333333333335,1198.3333333333333 1720,1200 C1721.6666666666665,1201.6666666666667 1728.3333333333335,1111.6666666666667 1730,1110 C1731.6666666666665,1108.3333333333333 1728.3333333333335,1188.3333333333333 1730,1190 C1731.6666666666665,1191.6666666666667 1738.3333333333335,1123.3333333333333 1740,1120 Z" fill="black" stroke="none" />
      </svg>