<svg xmlns="http://www.w3.org/2000/svg" viewBox="0 0 4000 4000">
        <path d="M1600,770 C1601.6666666666665,770 1610,768.3333333333333 1610,770 C1610,771.6666666666667 1603.3333333333335,778.3333333333333 1600,780 C1596.6666666666665,781.6666666666667 1586.6666666666665,781.6666666666667 1590,780 C1593.3333333333335,778.3333333333333 1620,768.3333333333333 1620,770 C1620,771.6666666666667 1596.6666666666665,786.6666666666667 1590,790 C1583.3333333333335,793.3333333333333 1573.3333333333335,793.3333333333333 1580,790 C1586.6666666666665,786.6666666666667 1630,768.3333333333333 1630,770 C1630,771.6666666666667 1590,795 1580,800 C1570,805 1560,805 1570,800 C1580,795 1628.3333333333335,773.3333333333333 1640,770 C1651.6666666666665,766.6666666666667 1651.6666666666665,773.3333333333333 1640,780 C1628.3333333333335,786.6666666666667 1583.3333333333335,805 1570,810 C1556.6666666666665,815 1546.6666666666665,815 1560,810 C1573.3333333333335,805 1635,783.3333333333333 1650,780 C1665,776.6666666666667 1666.6666666666665,783.3333333333333 1650,790 C1633.3333333333335,796.6666666666667 1548.3333333333335,820 1550,820 C1551.6666666666665,820 1660,788.3333333333333 1660,790 C1660,791.6666666666667 1570,823.3333333333333 1550,830 C1530,836.6666666666667 1520,836.6666666666667 1540,830 C1560,823.3333333333333 1670,788.3333333333333 1670,790 C1670,791.6666666666667 1563.3333333333335,831.6666666666667 1540,840 C1516.6666666666665,848.3333333333333 1506.6666666666665,848.3333333333333 1530,840 C1553.3333333333335,831.6666666666667 1655,795 1680,790 C1705,785 1706.6666666666665,800 1680,810 C1653.3333333333335,820 1518.3333333333335,850 1520,850 C1521.6666666666665,850 1661.6666666666665,815 1690,810 C1718.3333333333335,805 1718.3333333333335,811.6666666666667 1690,820 C1661.6666666666665,828.3333333333333 1518.3333333333335,860 1520,860 C1521.6666666666665,860 1670,825 1700,820 C1730,815 1731.6666666666665,821.6666666666667 1700,830 C1668.3333333333335,838.3333333333333 1508.3333333333335,870 1510,870 C1511.6666666666665,870 1676.6666666666665,833.3333333333333 1710,830 C1743.3333333333335,826.6666666666667 1745,841.6666666666667 1710,850 C1675,858.3333333333333 1498.3333333333335,880 1500,880 C1501.6666666666665,880 1683.3333333333335,848.3333333333333 1720,850 C1756.6666666666665,851.6666666666667 1756.6666666666665,883.3333333333333 1720,890 C1683.3333333333335,896.6666666666667 1501.6666666666665,888.3333333333333 1500,890 C1498.3333333333335,891.6666666666667 1710,898.3333333333333 1710,900 C1710,901.6666666666667 1500,898.3333333333333 1500,900 C1500,901.6666666666667 1711.6666666666665,908.3333333333333 1710,910 C1708.3333333333335,911.6666666666667 1491.6666666666665,908.3333333333333 1490,910 C1488.3333333333335,911.6666666666667 1700,918.3333333333333 1700,920 C1700,921.6666666666667 1490,918.3333333333333 1490,920 C1490,921.6666666666667 1701.6666666666665,928.3333333333333 1700,930 C1698.3333333333335,931.6666666666667 1480,928.3333333333333 1480,930 C1480,931.6666666666667 1700,938.3333333333333 1700,940 C1700,941.6666666666667 1481.6666666666665,938.3333333333333 1480,940 C1478.3333333333335,941.6666666666667 1691.6666666666665,948.3333333333333 1690,950 C1688.3333333333335,951.6666666666667 1471.6666666666665,948.3333333333333 1470,950 C1468.3333333333335,951.6666666666667 1680,958.3333333333333 1680,960 C1680,961.6666666666667 1471.6666666666665,958.3333333333333 1470,960 C1468.3333333333335,961.6666666666667 1671.6666666666665,968.3333333333333 1670,970 C1668.3333333333335,971.6666666666667 1478.3333333333335,968.3333333333333 1460,970 C1441.6666666666665,971.6666666666667 1560,978.3333333333333 1560,980 C1560,981.6666666666667 1460,978.3333333333333 1460,980 C1460,981.6666666666667 1561.6666666666665,988.3333333333333 1560,990 C1558.3333333333335,991.6666666666667 1451.6666666666665,988.3333333333333 1450,990 C1448.3333333333335,991.6666666666667 1550,998.3333333333333 1550,1000 C1550,1001.6666666666667 1450,998.3333333333333 1450,1000 C1450,1001.6666666666667 1550,1008.3333333333333 1550,1010 C1550,1011.6666666666667 1450,1008.3333333333333 1450,1010 C1450,1011.6666666666667 1550,1018.3333333333333 1550,1020 C1550,1021.6666666666667 1451.6666666666665,1018.3333333333333 1450,1020 C1448.3333333333335,1021.6666666666667 1541.6666666666665,1028.3333333333333 1540,1030 C1538.3333333333335,1031.6666666666667 1440,1028.3333333333333 1440,1030 C1440,1031.6666666666667 1540,1038.3333333333333 1540,1040 C1540,1041.6666666666667 1441.6666666666665,1038.3333333333333 1440,1040 C1438.3333333333335,1041.6666666666667 1530,1048.3333333333333 1530,1050 C1530,1051.6666666666667 1440,1048.3333333333333 1440,1050 C1440,1051.6666666666667 1531.6666666666665,1058.3333333333333 1530,1060 C1528.3333333333335,1061.6666666666667 1430,1058.3333333333333 1430,1060 C1430,1061.6666666666667 1530,1068.3333333333333 1530,1070 C1530,1071.6666666666667 1430,1068.3333333333333 1430,1070 C1430,1071.6666666666667 1530,1078.3333333333333 1530,1080 C1530,1081.6666666666667 1431.6666666666665,1078.3333333333333 1430,1080 C1428.3333333333335,1081.6666666666667 1520,1088.3333333333333 1520,1090 C1520,1091.6666666666667 1430,1088.3333333333333 1430,1090 C1430,1091.6666666666667 1521.6666666666665,1098.3333333333333 1520,1100 C1518.3333333333335,1101.6666666666667 1420,1098.3333333333333 1420,1100 C1420,1101.6666666666667 1520,1108.3333333333333 1520,1110 C1520,1111.6666666666667 1421.6666666666665,1108.3333333333333 1420,1110 C1418.3333333333335,1111.6666666666667 1510,1118.3333333333333 1510,1120 C1510,1121.6666666666667 1420,1118.3333333333333 1420,1120 C1420,1121.6666666666667 1510,1128.3333333333333 1510,1130 C1510,1131.6666666666667 1420,1128.3333333333333 1420,1130 C1420,1131.6666666666667 1510,1138.3333333333333 1510,1140 C1510,1141.6666666666667 1420,1138.3333333333333 1420,1140 C1420,1141.6666666666667 1510,1148.3333333333333 1510,1150 C1510,1151.6666666666667 1420,1148.3333333333333 1420,1150 C1420,1151.6666666666667 1510,1158.3333333333333 1510,1160 C1510,1161.6666666666667 1420,1158.3333333333333 1420,1160 C1420,1161.6666666666667 1510,1168.3333333333333 1510,1170 C1510,1171.6666666666667 1420,1168.3333333333333 1420,1170 C1420,1171.6666666666667 1510,1178.3333333333333 1510,1180 C1510,1181.6666666666667 1420,1178.3333333333333 1420,1180 C1420,1181.6666666666667 1510,1188.3333333333333 1510,1190 C1510,1191.6666666666667 1420,1188.3333333333333 1420,1190 C1420,1191.6666666666667 1510,1198.3333333333333 1510,1200 C1510,1201.6666666666667 1418.3333333333335,1198.3333333333333 1420,1200 C1421.6666666666665,1201.6666666666667 1520,1208.3333333333333 1520,1210 C1520,1211.6666666666667 1418.3333333333335,1210 1420,1210 C1421.6666666666665,1210 1528.3333333333335,1208.3333333333333 1530,1210 C1531.6666666666665,1211.6666666666667 1428.3333333333335,1220 1430,1220 C1431.6666666666665,1220 1538.3333333333335,1208.3333333333333 1540,1210 C1541.6666666666665,1211.6666666666667 1438.3333333333335,1231.6666666666667 1440,1230 C1441.6666666666665,1228.3333333333333 1531.6666666666665,1203.3333333333333 1550,1200 C1568.3333333333335,1196.6666666666667 1568.3333333333335,1203.3333333333333 1550,1210 C1531.6666666666665,1216.6666666666667 1438.3333333333335,1241.6666666666667 1440,1240 C1441.6666666666665,1238.3333333333333 1558.3333333333335,1198.3333333333333 1560,1200 C1561.6666666666665,1201.6666666666667 1470,1241.6666666666667 1450,1250 C1430,1258.3333333333333 1420,1260 1440,1250 C1460,1240 1548.3333333333335,1198.3333333333333 1570,1190 C1591.6666666666665,1181.6666666666667 1588.3333333333335,1188.3333333333333 1570,1200 C1551.6666666666665,1211.6666666666667 1480,1250 1460,1260 C1440,1270 1430,1271.6666666666667 1450,1260 C1470,1248.3333333333333 1576.6666666666665,1188.3333333333333 1580,1190 C1583.3333333333335,1191.6666666666667 1490,1256.6666666666667 1470,1270 C1450,1283.3333333333335 1440,1285 1460,1270 C1480,1255 1568.3333333333335,1178.3333333333333 1590,1180 C1611.6666666666665,1181.6666666666667 1610,1263.3333333333333 1590,1280 C1570,1296.6666666666665 1468.3333333333335,1298.3333333333335 1470,1280 C1471.6666666666665,1261.6666666666667 1578.3333333333335,1170 1600,1170 C1621.6666666666665,1170 1601.6666666666665,1260 1600,1280 C1598.3333333333335,1300 1610,1288.3333333333335 1590,1290 C1570,1291.6666666666665 1476.6666666666665,1311.6666666666665 1480,1290 C1483.3333333333335,1268.3333333333333 1588.3333333333335,1161.6666666666667 1610,1160 C1631.6666666666665,1158.3333333333333 1615,1256.6666666666667 1610,1280 C1605,1303.3333333333335 1598.3333333333335,1296.6666666666665 1580,1300 C1561.6666666666665,1303.3333333333335 1493.3333333333335,1325 1500,1300 C1506.6666666666665,1275 1600,1155 1620,1150 C1640,1145 1631.6666666666665,1243.3333333333333 1620,1270 C1608.3333333333335,1296.6666666666665 1565,1303.3333333333335 1550,1310 C1535,1316.6666666666665 1516.6666666666665,1336.6666666666665 1530,1310 C1543.3333333333335,1283.3333333333335 1613.3333333333335,1158.3333333333333 1630,1150 C1646.6666666666665,1141.6666666666667 1628.3333333333335,1261.6666666666667 1630,1260 C1631.6666666666665,1258.3333333333333 1638.3333333333335,1141.6666666666667 1640,1140 C1641.6666666666665,1138.3333333333333 1638.3333333333335,1251.6666666666667 1640,1250 C1641.6666666666665,1248.3333333333333 1648.3333333333335,1131.6666666666667 1650,1130 C1651.6666666666665,1128.3333333333333 1648.3333333333335,1240 1650,1240 C1651.6666666666665,1240 1658.3333333333335,1131.6666666666667 1660,1130 C1661.6666666666665,1128.3333333333333 1658.3333333333335,1231.6666666666667 1660,1230 C1661.6666666666665,1228.3333333333333 1668.3333333333335,1121.6666666666667 1670,1120 C1671.6666666666665,1118.3333333333333 1668.3333333333335,1221.6666666666667 1670,1220 C1671.6666666666665,1218.3333333333333 1678.3333333333335,1111.6666666666667 1680,1110 C1681.6666666666665,1108.3333333333333 1678.3333333333335,1210 1680,1210 C1681.6666666666665,1210 1688.3333333333335,1113.3333333333333 1690,1110 C1691.6666666666665,1106.6666666666667 1688.3333333333335,1191.6666666666667 1690,1190 C1691.6666666666665,1188.3333333333333 1698.3333333333335,1101.6666666666667 1700,1100 C1701.6666666666665,1098.3333333333333 1698.3333333333335,1175 1700,1180 C1701.6666666666665,1185 1708.3333333333335,1131.6666666666667 1710,1130 C1711.6666666666665,1128.3333333333333 1708.3333333333335,1168.3333333333333 1710,1170 C1711.6666666666665,1171.6666666666667 1718.3333333333335,1141.6666666666667 1720,1140 Z" fill="black" stroke="none" />
      </svg>