<svg xmlns="http://www.w3.org/2000/svg" viewBox="0 0 4000 4000">
        <path d="M1610,770 C1611.6666666666665,770 1618.3333333333335,768.3333333333333 1620,770 C1621.6666666666665,771.6666666666667 1623.3333333333335,778.3333333333333 1620,780 C1616.6666666666665,781.6666666666667 1598.3333333333335,780 1600,780 C1601.6666666666665,780 1625,778.3333333333333 1630,780 C1635,781.6666666666667 1636.6666666666665,788.3333333333333 1630,790 C1623.3333333333335,791.6666666666667 1588.3333333333335,790 1590,790 C1591.6666666666665,790 1641.6666666666665,788.3333333333333 1640,790 C1638.3333333333335,791.6666666666667 1590,800 1580,800 C1570,800 1568.3333333333335,791.6666666666667 1580,790 C1591.6666666666665,788.3333333333333 1651.6666666666665,786.6666666666667 1650,790 C1648.3333333333335,793.3333333333333 1583.3333333333335,808.3333333333333 1570,810 C1556.6666666666665,811.6666666666667 1555,803.3333333333333 1570,800 C1585,796.6666666666667 1661.6666666666665,786.6666666666667 1660,790 C1658.3333333333335,793.3333333333333 1576.6666666666665,816.6666666666667 1560,820 C1543.3333333333335,823.3333333333333 1541.6666666666665,815 1560,810 C1578.3333333333335,805 1651.6666666666665,791.6666666666667 1670,790 C1688.3333333333335,788.3333333333333 1690,793.3333333333333 1670,800 C1650,806.6666666666667 1570,826.6666666666667 1550,830 C1530,833.3333333333333 1528.3333333333335,825 1550,820 C1571.6666666666665,815 1658.3333333333335,801.6666666666667 1680,800 C1701.6666666666665,798.3333333333333 1703.3333333333335,803.3333333333333 1680,810 C1656.6666666666665,816.6666666666667 1563.3333333333335,836.6666666666667 1540,840 C1516.6666666666665,843.3333333333333 1515,835 1540,830 C1565,825 1665,810 1690,810 C1715,810 1716.6666666666665,823.3333333333333 1690,830 C1663.3333333333335,836.6666666666667 1528.3333333333335,850 1530,850 C1531.6666666666665,850 1701.6666666666665,828.3333333333333 1700,830 C1698.3333333333335,831.6666666666667 1518.3333333333335,860 1520,860 C1521.6666666666665,860 1678.3333333333335,831.6666666666667 1710,830 C1741.6666666666665,828.3333333333333 1741.6666666666665,843.3333333333333 1710,850 C1678.3333333333335,856.6666666666667 1518.3333333333335,870 1520,870 C1521.6666666666665,870 1686.6666666666665,848.3333333333333 1720,850 C1753.3333333333335,851.6666666666667 1755,875 1720,880 C1685,885 1511.6666666666665,878.3333333333333 1510,880 C1508.3333333333335,881.6666666666667 1710,888.3333333333333 1710,890 C1710,891.6666666666667 1510,888.3333333333333 1510,890 C1510,891.6666666666667 1711.6666666666665,898.3333333333333 1710,900 C1708.3333333333335,901.6666666666667 1501.6666666666665,898.3333333333333 1500,900 C1498.3333333333335,901.6666666666667 1700,908.3333333333333 1700,910 C1700,911.6666666666667 1500,908.3333333333333 1500,910 C1500,911.6666666666667 1701.6666666666665,918.3333333333333 1700,920 C1698.3333333333335,921.6666666666667 1490,918.3333333333333 1490,920 C1490,921.6666666666667 1700,928.3333333333333 1700,930 C1700,931.6666666666667 1491.6666666666665,928.3333333333333 1490,930 C1488.3333333333335,931.6666666666667 1691.6666666666665,938.3333333333333 1690,940 C1688.3333333333335,941.6666666666667 1481.6666666666665,938.3333333333333 1480,940 C1478.3333333333335,941.6666666666667 1680,948.3333333333333 1680,950 C1680,951.6666666666667 1480,948.3333333333333 1480,950 C1480,951.6666666666667 1681.6666666666665,958.3333333333333 1680,960 C1678.3333333333335,961.6666666666667 1488.3333333333335,958.3333333333333 1470,960 C1451.6666666666665,961.6666666666667 1570,968.3333333333333 1570,970 C1570,971.6666666666667 1471.6666666666665,968.3333333333333 1470,970 C1468.3333333333335,971.6666666666667 1561.6666666666665,978.3333333333333 1560,980 C1558.3333333333335,981.6666666666667 1461.6666666666665,978.3333333333333 1460,980 C1458.3333333333335,981.6666666666667 1550,988.3333333333333 1550,990 C1550,991.6666666666667 1460,988.3333333333333 1460,990 C1460,991.6666666666667 1550,998.3333333333333 1550,1000 C1550,1001.6666666666667 1460,998.3333333333333 1460,1000 C1460,1001.6666666666667 1551.6666666666665,1008.3333333333333 1550,1010 C1548.3333333333335,1011.6666666666667 1451.6666666666665,1008.3333333333333 1450,1010 C1448.3333333333335,1011.6666666666667 1540,1018.3333333333333 1540,1020 C1540,1021.6666666666667 1450,1018.3333333333333 1450,1020 C1450,1021.6666666666667 1540,1028.3333333333333 1540,1030 C1540,1031.6666666666667 1451.6666666666665,1028.3333333333333 1450,1030 C1448.3333333333335,1031.6666666666667 1531.6666666666665,1038.3333333333333 1530,1040 C1528.3333333333335,1041.6666666666667 1440,1038.3333333333333 1440,1040 C1440,1041.6666666666667 1530,1048.3333333333333 1530,1050 C1530,1051.6666666666667 1440,1048.3333333333333 1440,1050 C1440,1051.6666666666667 1530,1058.3333333333333 1530,1060 C1530,1061.6666666666667 1441.6666666666665,1058.3333333333333 1440,1060 C1438.3333333333335,1061.6666666666667 1521.6666666666665,1068.3333333333333 1520,1070 C1518.3333333333335,1071.6666666666667 1430,1068.3333333333333 1430,1070 C1430,1071.6666666666667 1520,1078.3333333333333 1520,1080 C1520,1081.6666666666667 1430,1078.3333333333333 1430,1080 C1430,1081.6666666666667 1520,1088.3333333333333 1520,1090 C1520,1091.6666666666667 1431.6666666666665,1088.3333333333333 1430,1090 C1428.3333333333335,1091.6666666666667 1510,1098.3333333333333 1510,1100 C1510,1101.6666666666667 1430,1098.3333333333333 1430,1100 C1430,1101.6666666666667 1511.6666666666665,1108.3333333333333 1510,1110 C1508.3333333333335,1111.6666666666667 1420,1108.3333333333333 1420,1110 C1420,1111.6666666666667 1510,1118.3333333333333 1510,1120 C1510,1121.6666666666667 1420,1118.3333333333333 1420,1120 C1420,1121.6666666666667 1510,1128.3333333333333 1510,1130 C1510,1131.6666666666667 1420,1128.3333333333333 1420,1130 C1420,1131.6666666666667 1510,1138.3333333333333 1510,1140 C1510,1141.6666666666667 1420,1138.3333333333333 1420,1140 C1420,1141.6666666666667 1510,1148.3333333333333 1510,1150 C1510,1151.6666666666667 1421.6666666666665,1148.3333333333333 1420,1150 C1418.3333333333335,1151.6666666666667 1500,1158.3333333333333 1500,1160 C1500,1161.6666666666667 1420,1158.3333333333333 1420,1160 C1420,1161.6666666666667 1500,1168.3333333333333 1500,1170 C1500,1171.6666666666667 1420,1168.3333333333333 1420,1170 C1420,1171.6666666666667 1500,1178.3333333333333 1500,1180 C1500,1181.6666666666667 1420,1178.3333333333333 1420,1180 C1420,1181.6666666666667 1500,1188.3333333333333 1500,1190 C1500,1191.6666666666667 1420,1188.3333333333333 1420,1190 C1420,1191.6666666666667 1500,1198.3333333333333 1500,1200 C1500,1201.6666666666667 1420,1198.3333333333333 1420,1200 C1420,1201.6666666666667 1500,1208.3333333333333 1500,1210 C1500,1211.6666666666667 1418.3333333333335,1208.3333333333333 1420,1210 C1421.6666666666665,1211.6666666666667 1508.3333333333335,1218.3333333333333 1510,1220 C1511.6666666666665,1221.6666666666667 1428.3333333333335,1220 1430,1220 C1431.6666666666665,1220 1520,1218.3333333333333 1520,1220 C1520,1221.6666666666667 1428.3333333333335,1230 1430,1230 C1431.6666666666665,1230 1526.6666666666665,1218.3333333333333 1530,1220 C1533.3333333333335,1221.6666666666667 1465,1236.6666666666667 1450,1240 C1435,1243.3333333333333 1425,1245 1440,1240 C1455,1235 1523.3333333333335,1213.3333333333333 1540,1210 C1556.6666666666665,1206.6666666666667 1553.3333333333335,1213.3333333333333 1540,1220 C1526.6666666666665,1226.6666666666667 1475,1245 1460,1250 C1445,1255 1435,1256.6666666666667 1450,1250 C1465,1243.3333333333333 1546.6666666666665,1208.3333333333333 1550,1210 C1553.3333333333335,1211.6666666666667 1485,1251.6666666666667 1470,1260 C1455,1268.3333333333333 1445,1270 1460,1260 C1475,1250 1543.3333333333335,1208.3333333333333 1560,1200 C1576.6666666666665,1191.6666666666667 1573.3333333333335,1198.3333333333333 1560,1210 C1546.6666666666665,1221.6666666666667 1495,1260 1480,1270 C1465,1280 1455,1281.6666666666665 1470,1270 C1485,1258.3333333333333 1566.6666666666665,1198.3333333333333 1570,1200 C1573.3333333333335,1201.6666666666667 1505,1266.6666666666667 1490,1280 C1475,1293.3333333333335 1465,1295 1480,1280 C1495,1265 1563.3333333333335,1188.3333333333333 1580,1190 C1596.6666666666665,1191.6666666666667 1595,1273.3333333333333 1580,1290 C1565,1306.6666666666665 1488.3333333333335,1308.3333333333335 1490,1290 C1491.6666666666665,1271.6666666666667 1573.3333333333335,1180 1590,1180 C1606.6666666666665,1180 1595,1270 1590,1290 C1585,1310 1573.3333333333335,1298.3333333333335 1560,1300 C1546.6666666666665,1301.6666666666665 1503.3333333333335,1320 1510,1300 C1516.6666666666665,1280 1585,1183.3333333333333 1600,1180 C1615,1176.6666666666667 1598.3333333333335,1281.6666666666665 1600,1280 C1601.6666666666665,1278.3333333333333 1608.3333333333335,1171.6666666666667 1610,1170 C1611.6666666666665,1168.3333333333333 1608.3333333333335,1271.6666666666667 1610,1270 C1611.6666666666665,1268.3333333333333 1618.3333333333335,1161.6666666666667 1620,1160 C1621.6666666666665,1158.3333333333333 1618.3333333333335,1261.6666666666667 1620,1260 C1621.6666666666665,1258.3333333333333 1628.3333333333335,1151.6666666666667 1630,1150 C1631.6666666666665,1148.3333333333333 1628.3333333333335,1250 1630,1250 C1631.6666666666665,1250 1638.3333333333335,1151.6666666666667 1640,1150 C1641.6666666666665,1148.3333333333333 1638.3333333333335,1241.6666666666667 1640,1240 C1641.6666666666665,1238.3333333333333 1648.3333333333335,1141.6666666666667 1650,1140 C1651.6666666666665,1138.3333333333333 1648.3333333333335,1230 1650,1230 C1651.6666666666665,1230 1658.3333333333335,1141.6666666666667 1660,1140 C1661.6666666666665,1138.3333333333333 1658.3333333333335,1221.6666666666667 1660,1220 C1661.6666666666665,1218.3333333333333 1668.3333333333335,1131.6666666666667 1670,1130 C1671.6666666666665,1128.3333333333333 1668.3333333333335,1211.6666666666667 1670,1210 C1671.6666666666665,1208.3333333333333 1678.3333333333335,1121.6666666666667 1680,1120 C1681.6666666666665,1118.3333333333333 1678.3333333333335,1200 1680,1200 C1681.6666666666665,1200 1688.3333333333335,1121.6666666666667 1690,1120 C1691.6666666666665,1118.3333333333333 1688.3333333333335,1190 1690,1190 C1691.6666666666665,1190 1698.3333333333335,1121.6666666666667 1700,1120 C1701.6666666666665,1118.3333333333333 1698.3333333333335,1178.3333333333333 1700,1180 C1701.6666666666665,1181.6666666666667 1708.3333333333335,1133.3333333333333 1710,1130 C1711.6666666666665,1126.6666666666667 1708.3333333333335,1156.6666666666667 1710,1160 Z" fill="black" stroke="none" />
      </svg>