<svg xmlns="http://www.w3.org/2000/svg" viewBox="0 0 4000 4000">
        <path d="M1600,760 C1601.6666666666665,760 1610,758.3333333333333 1610,760 C1610,761.6666666666667 1603.3333333333335,768.3333333333333 1600,770 C1596.6666666666665,771.6666666666667 1586.6666666666665,771.6666666666667 1590,770 C1593.3333333333335,768.3333333333333 1620,758.3333333333333 1620,760 C1620,761.6666666666667 1596.6666666666665,776.6666666666667 1590,780 C1583.3333333333335,783.3333333333333 1573.3333333333335,783.3333333333333 1580,780 C1586.6666666666665,776.6666666666667 1621.6666666666665,761.6666666666667 1630,760 C1638.3333333333335,758.3333333333333 1638.3333333333335,765 1630,770 C1621.6666666666665,775 1590,786.6666666666667 1580,790 C1570,793.3333333333333 1560,793.3333333333333 1570,790 C1580,786.6666666666667 1640,768.3333333333333 1640,770 C1640,771.6666666666667 1583.3333333333335,795 1570,800 C1556.6666666666665,805 1546.6666666666665,805 1560,800 C1573.3333333333335,795 1651.6666666666665,768.3333333333333 1650,770 C1648.3333333333335,771.6666666666667 1566.6666666666665,805 1550,810 C1533.3333333333335,815 1531.6666666666665,806.6666666666667 1550,800 C1568.3333333333335,793.3333333333333 1641.6666666666665,773.3333333333333 1660,770 C1678.3333333333335,766.6666666666667 1678.3333333333335,771.6666666666667 1660,780 C1641.6666666666665,788.3333333333333 1570,813.3333333333333 1550,820 C1530,826.6666666666667 1520,826.6666666666667 1540,820 C1560,813.3333333333333 1670,778.3333333333333 1670,780 C1670,781.6666666666667 1563.3333333333335,821.6666666666667 1540,830 C1516.6666666666665,838.3333333333333 1506.6666666666665,838.3333333333333 1530,830 C1553.3333333333335,821.6666666666667 1655,786.6666666666667 1680,780 C1705,773.3333333333333 1705,780 1680,790 C1655,800 1556.6666666666665,831.6666666666667 1530,840 C1503.3333333333335,848.3333333333333 1493.3333333333335,848.3333333333333 1520,840 C1546.6666666666665,831.6666666666667 1661.6666666666665,796.6666666666667 1690,790 C1718.3333333333335,783.3333333333333 1718.3333333333335,790 1690,800 C1661.6666666666665,810 1550,841.6666666666667 1520,850 C1490,858.3333333333333 1480,858.3333333333333 1510,850 C1540,841.6666666666667 1668.3333333333335,806.6666666666667 1700,800 C1731.6666666666665,793.3333333333333 1731.6666666666665,800 1700,810 C1668.3333333333335,820 1543.3333333333335,851.6666666666667 1510,860 C1476.6666666666665,868.3333333333333 1466.6666666666665,868.3333333333333 1500,860 C1533.3333333333335,851.6666666666667 1675,815 1710,810 C1745,805 1745,820 1710,830 C1675,840 1498.3333333333335,870 1500,870 C1501.6666666666665,870 1683.3333333333335,835 1720,830 C1756.6666666666665,825 1756.6666666666665,831.6666666666667 1720,840 C1683.3333333333335,848.3333333333333 1538.3333333333335,873.3333333333333 1500,880 C1461.6666666666665,886.6666666666667 1451.6666666666665,886.6666666666667 1490,880 C1528.3333333333335,873.3333333333333 1690,838.3333333333333 1730,840 C1770,841.6666666666667 1770,881.6666666666667 1730,890 C1690,898.3333333333333 1491.6666666666665,888.3333333333333 1490,890 C1488.3333333333335,891.6666666666667 1721.6666666666665,898.3333333333333 1720,900 C1718.3333333333335,901.6666666666667 1480,898.3333333333333 1480,900 C1480,901.6666666666667 1720,908.3333333333333 1720,910 C1720,911.6666666666667 1480,908.3333333333333 1480,910 C1480,911.6666666666667 1721.6666666666665,918.3333333333333 1720,920 C1718.3333333333335,921.6666666666667 1471.6666666666665,918.3333333333333 1470,920 C1468.3333333333335,921.6666666666667 1710,928.3333333333333 1710,930 C1710,931.6666666666667 1470,928.3333333333333 1470,930 C1470,931.6666666666667 1711.6666666666665,938.3333333333333 1710,940 C1708.3333333333335,941.6666666666667 1461.6666666666665,938.3333333333333 1460,940 C1458.3333333333335,941.6666666666667 1700,948.3333333333333 1700,950 C1700,951.6666666666667 1461.6666666666665,948.3333333333333 1460,950 C1458.3333333333335,951.6666666666667 1690,958.3333333333333 1690,960 C1690,961.6666666666667 1461.6666666666665,958.3333333333333 1460,960 C1458.3333333333335,961.6666666666667 1681.6666666666665,968.3333333333333 1680,970 C1678.3333333333335,971.6666666666667 1468.3333333333335,968.3333333333333 1450,970 C1431.6666666666665,971.6666666666667 1570,978.3333333333333 1570,980 C1570,981.6666666666667 1450,978.3333333333333 1450,980 C1450,981.6666666666667 1571.6666666666665,988.3333333333333 1570,990 C1568.3333333333335,991.6666666666667 1441.6666666666665,988.3333333333333 1440,990 C1438.3333333333335,991.6666666666667 1560,998.3333333333333 1560,1000 C1560,1001.6666666666667 1440,998.3333333333333 1440,1000 C1440,1001.6666666666667 1560,1008.3333333333333 1560,1010 C1560,1011.6666666666667 1440,1008.3333333333333 1440,1010 C1440,1011.6666666666667 1561.6666666666665,1018.3333333333333 1560,1020 C1558.3333333333335,1021.6666666666667 1431.6666666666665,1018.3333333333333 1430,1020 C1428.3333333333335,1021.6666666666667 1550,1028.3333333333333 1550,1030 C1550,1031.6666666666667 1430,1028.3333333333333 1430,1030 C1430,1031.6666666666667 1550,1038.3333333333333 1550,1040 C1550,1041.6666666666667 1430,1038.3333333333333 1430,1040 C1430,1041.6666666666667 1550,1048.3333333333333 1550,1050 C1550,1051.6666666666667 1431.6666666666665,1048.3333333333333 1430,1050 C1428.3333333333335,1051.6666666666667 1541.6666666666665,1058.3333333333333 1540,1060 C1538.3333333333335,1061.6666666666667 1420,1058.3333333333333 1420,1060 C1420,1061.6666666666667 1540,1068.3333333333333 1540,1070 C1540,1071.6666666666667 1420,1068.3333333333333 1420,1070 C1420,1071.6666666666667 1540,1078.3333333333333 1540,1080 C1540,1081.6666666666667 1421.6666666666665,1078.3333333333333 1420,1080 C1418.3333333333335,1081.6666666666667 1531.6666666666665,1088.3333333333333 1530,1090 C1528.3333333333335,1091.6666666666667 1410,1088.3333333333333 1410,1090 C1410,1091.6666666666667 1530,1098.3333333333333 1530,1100 C1530,1101.6666666666667 1410,1098.3333333333333 1410,1100 C1410,1101.6666666666667 1530,1108.3333333333333 1530,1110 C1530,1111.6666666666667 1410,1108.3333333333333 1410,1110 C1410,1111.6666666666667 1530,1118.3333333333333 1530,1120 C1530,1121.6666666666667 1410,1118.3333333333333 1410,1120 C1410,1121.6666666666667 1530,1128.3333333333333 1530,1130 C1530,1131.6666666666667 1411.6666666666665,1128.3333333333333 1410,1130 C1408.3333333333335,1131.6666666666667 1520,1138.3333333333333 1520,1140 C1520,1141.6666666666667 1410,1138.3333333333333 1410,1140 C1410,1141.6666666666667 1520,1148.3333333333333 1520,1150 C1520,1151.6666666666667 1410,1148.3333333333333 1410,1150 C1410,1151.6666666666667 1520,1158.3333333333333 1520,1160 C1520,1161.6666666666667 1410,1158.3333333333333 1410,1160 C1410,1161.6666666666667 1520,1168.3333333333333 1520,1170 C1520,1171.6666666666667 1410,1168.3333333333333 1410,1170 C1410,1171.6666666666667 1520,1178.3333333333333 1520,1180 C1520,1181.6666666666667 1408.3333333333335,1178.3333333333333 1410,1180 C1411.6666666666665,1181.6666666666667 1530,1188.3333333333333 1530,1190 C1530,1191.6666666666667 1408.3333333333335,1190 1410,1190 C1411.6666666666665,1190 1540,1188.3333333333333 1540,1190 C1540,1191.6666666666667 1408.3333333333335,1200 1410,1200 C1411.6666666666665,1200 1548.3333333333335,1188.3333333333333 1550,1190 C1551.6666666666665,1191.6666666666667 1443.3333333333335,1206.6666666666667 1420,1210 C1396.6666666666665,1213.3333333333333 1386.6666666666665,1215 1410,1210 C1433.3333333333335,1205 1535,1183.3333333333333 1560,1180 C1585,1176.6666666666667 1583.3333333333335,1183.3333333333333 1560,1190 C1536.6666666666665,1196.6666666666667 1418.3333333333335,1221.6666666666667 1420,1220 C1421.6666666666665,1218.3333333333333 1568.3333333333335,1178.3333333333333 1570,1180 C1571.6666666666665,1181.6666666666667 1455,1221.6666666666667 1430,1230 C1405,1238.3333333333333 1395,1240 1420,1230 C1445,1220 1553.3333333333335,1178.3333333333333 1580,1170 C1606.6666666666665,1161.6666666666667 1605,1168.3333333333333 1580,1180 C1555,1191.6666666666667 1428.3333333333335,1243.3333333333333 1430,1240 C1431.6666666666665,1236.6666666666667 1563.3333333333335,1171.6666666666667 1590,1160 C1616.6666666666665,1148.3333333333333 1615,1155 1590,1170 C1565,1185 1466.6666666666665,1236.6666666666667 1440,1250 C1413.3333333333335,1263.3333333333333 1403.3333333333335,1265 1430,1250 C1456.6666666666665,1235 1596.6666666666665,1158.3333333333333 1600,1160 C1603.3333333333335,1161.6666666666667 1476.6666666666665,1243.3333333333333 1450,1260 C1423.3333333333335,1276.6666666666667 1413.3333333333335,1278.3333333333333 1440,1260 C1466.6666666666665,1241.6666666666667 1581.6666666666665,1166.6666666666667 1610,1150 C1638.3333333333335,1133.3333333333333 1635,1140 1610,1160 C1585,1180 1486.6666666666665,1251.6666666666667 1460,1270 C1433.3333333333335,1288.3333333333335 1423.3333333333335,1291.6666666666665 1450,1270 C1476.6666666666665,1248.3333333333333 1591.6666666666665,1138.3333333333333 1620,1140 C1648.3333333333335,1141.6666666666667 1646.6666666666665,1256.6666666666667 1620,1280 C1593.3333333333335,1303.3333333333335 1458.3333333333335,1305 1460,1280 C1461.6666666666665,1255 1601.6666666666665,1131.6666666666667 1630,1130 C1658.3333333333335,1128.3333333333333 1633.3333333333335,1243.3333333333333 1630,1270 C1626.6666666666665,1296.6666666666665 1636.6666666666665,1286.6666666666665 1610,1290 C1583.3333333333335,1293.3333333333335 1465,1316.6666666666665 1470,1290 C1475,1263.3333333333333 1611.6666666666665,1135 1640,1130 C1668.3333333333335,1125 1648.3333333333335,1231.6666666666667 1640,1260 C1631.6666666666665,1288.3333333333335 1616.6666666666665,1293.3333333333335 1590,1300 C1563.3333333333335,1306.6666666666665 1470,1330 1480,1300 C1490,1270 1621.6666666666665,1128.3333333333333 1650,1120 C1678.3333333333335,1111.6666666666667 1661.6666666666665,1218.3333333333333 1650,1250 C1638.3333333333335,1281.6666666666665 1605,1300 1580,1310 C1555,1320 1486.6666666666665,1343.3333333333335 1500,1310 C1513.3333333333335,1276.6666666666667 1633.3333333333335,1121.6666666666667 1660,1110 C1686.6666666666665,1098.3333333333333 1676.6666666666665,1205 1660,1240 C1643.3333333333335,1275 1583.3333333333335,1306.6666666666665 1560,1320 C1536.6666666666665,1333.3333333333335 1501.6666666666665,1355 1520,1320 C1538.3333333333335,1285 1645,1125 1670,1110 C1695,1095 1668.3333333333335,1231.6666666666667 1670,1230 C1671.6666666666665,1228.3333333333333 1678.3333333333335,1101.6666666666667 1680,1100 C1681.6666666666665,1098.3333333333333 1678.3333333333335,1220 1680,1220 C1681.6666666666665,1220 1688.3333333333335,1101.6666666666667 1690,1100 C1691.6666666666665,1098.3333333333333 1688.3333333333335,1210 1690,1210 C1691.6666666666665,1210 1698.3333333333335,1101.6666666666667 1700,1100 C1701.6666666666665,1098.3333333333333 1698.3333333333335,1200 1700,1200 C1701.6666666666665,1200 1708.3333333333335,1101.6666666666667 1710,1100 C1711.6666666666665,1098.3333333333333 1708.3333333333335,1186.6666666666667 1710,1190 C1711.6666666666665,1193.3333333333333 1718.3333333333335,1121.6666666666667 1720,1120 C1721.6666666666665,1118.3333333333333 1718.3333333333335,1178.3333333333333 1720,1180 C1721.6666666666665,1181.6666666666667 1728.3333333333335,1133.3333333333333 1730,1130 Z" fill="black" stroke="none" />
      </svg>