<svg xmlns="http://www.w3.org/2000/svg" viewBox="0 0 4000 4000">
        <path d="M1610,750 C1611.6666666666665,751.6666666666667 1621.6666666666665,758.3333333333333 1620,760 C1618.3333333333335,761.6666666666667 1598.3333333333335,760 1600,760 C1601.6666666666665,760 1631.6666666666665,760 1630,760 C1628.3333333333335,760 1588.3333333333335,760 1590,760 C1591.6666666666665,760 1641.6666666666665,758.3333333333333 1640,760 C1638.3333333333335,761.6666666666667 1590,770 1580,770 C1570,770 1568.3333333333335,761.6666666666667 1580,760 C1591.6666666666665,758.3333333333333 1638.3333333333335,758.3333333333333 1650,760 C1661.6666666666665,761.6666666666667 1663.3333333333335,766.6666666666667 1650,770 C1636.6666666666665,773.3333333333333 1583.3333333333335,780 1570,780 C1556.6666666666665,780 1555,771.6666666666667 1570,770 C1585,768.3333333333333 1661.6666666666665,766.6666666666667 1660,770 C1658.3333333333335,773.3333333333333 1576.6666666666665,788.3333333333333 1560,790 C1543.3333333333335,791.6666666666667 1541.6666666666665,783.3333333333333 1560,780 C1578.3333333333335,776.6666666666667 1671.6666666666665,766.6666666666667 1670,770 C1668.3333333333335,773.3333333333333 1570,796.6666666666667 1550,800 C1530,803.3333333333333 1528.3333333333335,795 1550,790 C1571.6666666666665,785 1658.3333333333335,771.6666666666667 1680,770 C1701.6666666666665,768.3333333333333 1703.3333333333335,773.3333333333333 1680,780 C1656.6666666666665,786.6666666666667 1563.3333333333335,806.6666666666667 1540,810 C1516.6666666666665,813.3333333333333 1515,805 1540,800 C1565,795 1665,781.6666666666667 1690,780 C1715,778.3333333333333 1716.6666666666665,783.3333333333333 1690,790 C1663.3333333333335,796.6666666666667 1556.6666666666665,816.6666666666667 1530,820 C1503.3333333333335,823.3333333333333 1501.6666666666665,815 1530,810 C1558.3333333333335,805 1671.6666666666665,791.6666666666667 1700,790 C1728.3333333333335,788.3333333333333 1730,793.3333333333333 1700,800 C1670,806.6666666666667 1550,826.6666666666667 1520,830 C1490,833.3333333333333 1488.3333333333335,825 1520,820 C1551.6666666666665,815 1678.3333333333335,801.6666666666667 1710,800 C1741.6666666666665,798.3333333333333 1743.3333333333335,801.6666666666667 1710,810 C1676.6666666666665,818.3333333333333 1543.3333333333335,846.6666666666667 1510,850 C1476.6666666666665,853.3333333333333 1475,836.6666666666667 1510,830 C1545,823.3333333333333 1685,810 1720,810 C1755,810 1756.6666666666665,821.6666666666667 1720,830 C1683.3333333333335,838.3333333333333 1536.6666666666665,856.6666666666667 1500,860 C1463.3333333333335,863.3333333333333 1461.6666666666665,855 1500,850 C1538.3333333333335,845 1691.6666666666665,828.3333333333333 1730,830 C1768.3333333333335,831.6666666666667 1770,853.3333333333333 1730,860 C1690,866.6666666666667 1530,870 1490,870 C1450,870 1448.3333333333335,861.6666666666667 1490,860 C1531.6666666666665,858.3333333333333 1698.3333333333335,856.6666666666667 1740,860 C1781.6666666666665,863.3333333333333 1783.3333333333335,876.6666666666667 1740,880 C1696.6666666666665,883.3333333333333 1480,878.3333333333333 1480,880 C1480,881.6666666666667 1740,888.3333333333333 1740,890 C1740,891.6666666666667 1481.6666666666665,888.3333333333333 1480,890 C1478.3333333333335,891.6666666666667 1731.6666666666665,898.3333333333333 1730,900 C1728.3333333333335,901.6666666666667 1470,898.3333333333333 1470,900 C1470,901.6666666666667 1730,908.3333333333333 1730,910 C1730,911.6666666666667 1470,908.3333333333333 1470,910 C1470,911.6666666666667 1731.6666666666665,918.3333333333333 1730,920 C1728.3333333333335,921.6666666666667 1461.6666666666665,918.3333333333333 1460,920 C1458.3333333333335,921.6666666666667 1720,928.3333333333333 1720,930 C1720,931.6666666666667 1460,928.3333333333333 1460,930 C1460,931.6666666666667 1721.6666666666665,938.3333333333333 1720,940 C1718.3333333333335,941.6666666666667 1451.6666666666665,938.3333333333333 1450,940 C1448.3333333333335,941.6666666666667 1710,948.3333333333333 1710,950 C1710,951.6666666666667 1451.6666666666665,948.3333333333333 1450,950 C1448.3333333333335,951.6666666666667 1700,958.3333333333333 1700,960 C1700,961.6666666666667 1451.6666666666665,958.3333333333333 1450,960 C1448.3333333333335,961.6666666666667 1691.6666666666665,968.3333333333333 1690,970 C1688.3333333333335,971.6666666666667 1443.3333333333335,968.3333333333333 1440,970 C1436.6666666666665,971.6666666666667 1670,978.3333333333333 1670,980 C1670,981.6666666666667 1455,978.3333333333333 1440,980 C1425,981.6666666666667 1580,988.3333333333333 1580,990 C1580,991.6666666666667 1441.6666666666665,988.3333333333333 1440,990 C1438.3333333333335,991.6666666666667 1571.6666666666665,998.3333333333333 1570,1000 C1568.3333333333335,1001.6666666666667 1430,998.3333333333333 1430,1000 C1430,1001.6666666666667 1570,1008.3333333333333 1570,1010 C1570,1011.6666666666667 1430,1008.3333333333333 1430,1010 C1430,1011.6666666666667 1570,1018.3333333333333 1570,1020 C1570,1021.6666666666667 1431.6666666666665,1018.3333333333333 1430,1020 C1428.3333333333335,1021.6666666666667 1560,1028.3333333333333 1560,1030 C1560,1031.6666666666667 1430,1028.3333333333333 1430,1030 C1430,1031.6666666666667 1561.6666666666665,1038.3333333333333 1560,1040 C1558.3333333333335,1041.6666666666667 1421.6666666666665,1038.3333333333333 1420,1040 C1418.3333333333335,1041.6666666666667 1550,1048.3333333333333 1550,1050 C1550,1051.6666666666667 1420,1048.3333333333333 1420,1050 C1420,1051.6666666666667 1550,1058.3333333333333 1550,1060 C1550,1061.6666666666667 1420,1058.3333333333333 1420,1060 C1420,1061.6666666666667 1551.6666666666665,1068.3333333333333 1550,1070 C1548.3333333333335,1071.6666666666667 1411.6666666666665,1068.3333333333333 1410,1070 C1408.3333333333335,1071.6666666666667 1540,1078.3333333333333 1540,1080 C1540,1081.6666666666667 1410,1078.3333333333333 1410,1080 C1410,1081.6666666666667 1540,1088.3333333333333 1540,1090 C1540,1091.6666666666667 1410,1088.3333333333333 1410,1090 C1410,1091.6666666666667 1540,1098.3333333333333 1540,1100 C1540,1101.6666666666667 1410,1098.3333333333333 1410,1100 C1410,1101.6666666666667 1541.6666666666665,1108.3333333333333 1540,1110 C1538.3333333333335,1111.6666666666667 1401.6666666666665,1108.3333333333333 1400,1110 C1398.3333333333335,1111.6666666666667 1530,1118.3333333333333 1530,1120 C1530,1121.6666666666667 1400,1118.3333333333333 1400,1120 C1400,1121.6666666666667 1530,1128.3333333333333 1530,1130 C1530,1131.6666666666667 1400,1128.3333333333333 1400,1130 C1400,1131.6666666666667 1530,1138.3333333333333 1530,1140 C1530,1141.6666666666667 1400,1138.3333333333333 1400,1140 C1400,1141.6666666666667 1530,1148.3333333333333 1530,1150 C1530,1151.6666666666667 1400,1148.3333333333333 1400,1150 C1400,1151.6666666666667 1530,1158.3333333333333 1530,1160 C1530,1161.6666666666667 1400,1158.3333333333333 1400,1160 C1400,1161.6666666666667 1530,1168.3333333333333 1530,1170 C1530,1171.6666666666667 1398.3333333333335,1168.3333333333333 1400,1170 C1401.6666666666665,1171.6666666666667 1540,1178.3333333333333 1540,1180 C1540,1181.6666666666667 1398.3333333333335,1180 1400,1180 C1401.6666666666665,1180 1550,1178.3333333333333 1550,1180 C1550,1181.6666666666667 1398.3333333333335,1190 1400,1190 C1401.6666666666665,1190 1558.3333333333335,1178.3333333333333 1560,1180 C1561.6666666666665,1181.6666666666667 1408.3333333333335,1201.6666666666667 1410,1200 C1411.6666666666665,1198.3333333333333 1543.3333333333335,1173.3333333333333 1570,1170 C1596.6666666666665,1166.6666666666667 1596.6666666666665,1173.3333333333333 1570,1180 C1543.3333333333335,1186.6666666666667 1408.3333333333335,1213.3333333333333 1410,1210 C1411.6666666666665,1206.6666666666667 1551.6666666666665,1166.6666666666667 1580,1160 C1608.3333333333335,1153.3333333333333 1608.3333333333335,1160 1580,1170 C1551.6666666666665,1180 1408.3333333333335,1221.6666666666667 1410,1220 C1411.6666666666665,1218.3333333333333 1588.3333333333335,1158.3333333333333 1590,1160 C1591.6666666666665,1161.6666666666667 1450,1218.3333333333333 1420,1230 C1390,1241.6666666666667 1380,1243.3333333333333 1410,1230 C1440,1216.6666666666667 1568.3333333333335,1161.6666666666667 1600,1150 C1631.6666666666665,1138.3333333333333 1630,1145 1600,1160 C1570,1175 1418.3333333333335,1243.3333333333333 1420,1240 C1421.6666666666665,1236.6666666666667 1578.3333333333335,1155 1610,1140 C1641.6666666666665,1125 1640,1131.6666666666667 1610,1150 C1580,1168.3333333333333 1461.6666666666665,1233.3333333333333 1430,1250 C1398.3333333333335,1266.6666666666667 1388.3333333333335,1270 1420,1250 C1451.6666666666665,1230 1586.6666666666665,1148.3333333333333 1620,1130 C1653.3333333333335,1111.6666666666667 1650,1118.3333333333333 1620,1140 C1590,1161.6666666666667 1471.6666666666665,1240 1440,1260 C1408.3333333333335,1280 1398.3333333333335,1283.3333333333335 1430,1260 C1461.6666666666665,1236.6666666666667 1596.6666666666665,1118.3333333333333 1630,1120 C1663.3333333333335,1121.6666666666667 1661.6666666666665,1245 1630,1270 C1598.3333333333335,1295 1438.3333333333335,1295 1440,1270 C1441.6666666666665,1245 1606.6666666666665,1120 1640,1120 C1673.3333333333335,1120 1641.6666666666665,1243.3333333333333 1640,1270 C1638.3333333333335,1296.6666666666665 1661.6666666666665,1278.3333333333333 1630,1280 C1598.3333333333335,1281.6666666666665 1446.6666666666665,1308.3333333333335 1450,1280 C1453.3333333333335,1251.6666666666667 1616.6666666666665,1113.3333333333333 1650,1110 C1683.3333333333335,1106.6666666666667 1655,1230 1650,1260 C1645,1290 1651.6666666666665,1285 1620,1290 C1588.3333333333335,1295 1453.3333333333335,1321.6666666666665 1460,1290 C1466.6666666666665,1258.3333333333333 1626.6666666666665,1106.6666666666667 1660,1100 C1693.3333333333335,1093.3333333333333 1668.3333333333335,1216.6666666666667 1660,1250 C1651.6666666666665,1283.3333333333335 1641.6666666666665,1291.6666666666665 1610,1300 C1578.3333333333335,1308.3333333333335 1460,1333.3333333333335 1470,1300 C1480,1266.6666666666667 1636.6666666666665,1110 1670,1100 C1703.3333333333335,1090 1681.6666666666665,1205 1670,1240 C1658.3333333333335,1275 1631.6666666666665,1298.3333333333335 1600,1310 C1568.3333333333335,1321.6666666666665 1466.6666666666665,1346.6666666666665 1480,1310 C1493.3333333333335,1273.3333333333333 1646.6666666666665,1103.3333333333333 1680,1090 C1713.3333333333335,1076.6666666666667 1696.6666666666665,1191.6666666666667 1680,1230 C1663.3333333333335,1268.3333333333333 1611.6666666666665,1305 1580,1320 C1548.3333333333335,1335 1471.6666666666665,1358.3333333333335 1490,1320 C1508.3333333333335,1281.6666666666665 1656.6666666666665,1106.6666666666667 1690,1090 C1723.3333333333335,1073.3333333333333 1715,1180 1690,1220 C1665,1260 1568.3333333333335,1311.6666666666665 1540,1330 C1511.6666666666665,1348.3333333333335 1493.3333333333335,1370 1520,1330 C1546.6666666666665,1290 1670,1110 1700,1090 C1730,1070 1698.3333333333335,1208.3333333333333 1700,1210 C1701.6666666666665,1211.6666666666667 1708.3333333333335,1101.6666666666667 1710,1100 C1711.6666666666665,1098.3333333333333 1708.3333333333335,1200 1710,1200 C1711.6666666666665,1200 1718.3333333333335,1101.6666666666667 1720,1100 C1721.6666666666665,1098.3333333333333 1718.3333333333335,1186.6666666666667 1720,1190 C1721.6666666666665,1193.3333333333333 1728.3333333333335,1123.3333333333333 1730,1120 Z" fill="black" stroke="none" />
      </svg>